<mxfile host="app.diagrams.net" modified="2023-09-11T03:52:39.943Z" agent="Mozilla/5.0 (Windows NT 10.0; Win64; x64) AppleWebKit/537.36 (KHTML, like Gecko) Chrome/116.0.0.0 Safari/537.36" etag="InXBlbhh3pm4Z9i3AkS-" version="21.7.1" type="github">
  <diagram name="第 1 页" id="a-_AQHWOWzMkeuk54Jvo">
    <mxGraphModel dx="2901" dy="1118" grid="1" gridSize="10" guides="1" tooltips="1" connect="1" arrows="1" fold="1" page="1" pageScale="1" pageWidth="827" pageHeight="1169" math="0" shadow="0">
      <root>
        <mxCell id="0" />
        <mxCell id="1" parent="0" />
        <mxCell id="u67Gj3h4ZovZr4u92p-1-1" value="退货退款" style="text;html=1;align=center;verticalAlign=middle;resizable=0;points=[];autosize=1;strokeColor=none;fillColor=none;" vertex="1" parent="1">
          <mxGeometry x="85" y="168" width="70" height="30" as="geometry" />
        </mxCell>
        <mxCell id="u67Gj3h4ZovZr4u92p-1-4" value="" style="edgeStyle=orthogonalEdgeStyle;rounded=0;orthogonalLoop=1;jettySize=auto;html=1;" edge="1" parent="1" source="u67Gj3h4ZovZr4u92p-1-2" target="u67Gj3h4ZovZr4u92p-1-3">
          <mxGeometry relative="1" as="geometry" />
        </mxCell>
        <mxCell id="u67Gj3h4ZovZr4u92p-1-2" value="开始" style="rounded=1;whiteSpace=wrap;html=1;" vertex="1" parent="1">
          <mxGeometry x="220" y="210" width="120" height="60" as="geometry" />
        </mxCell>
        <mxCell id="u67Gj3h4ZovZr4u92p-1-3" value="买家申请退货" style="whiteSpace=wrap;html=1;rounded=1;" vertex="1" parent="1">
          <mxGeometry x="220" y="350" width="120" height="60" as="geometry" />
        </mxCell>
        <mxCell id="u67Gj3h4ZovZr4u92p-1-5" value="" style="shape=image;verticalLabelPosition=bottom;labelBackgroundColor=default;verticalAlign=top;aspect=fixed;imageAspect=0;image=data:image/png,iVBORw0KGgoAAAANSUhEUgAAB5wAAAG8CAYAAAACWNlMAAAgAElEQVR4Aey9f5Mcx3nn6begd+F/HeE7mwQgAEKYd6c7x90x9oclC8LMANaBPpMRS9NeMny2cAtYXhC6kC2RCxIjAAQxEEGC9IoysUcMtDKtAcCRoGWvQBk79vLExXBIGIqhZcGETUkWnosns7Iqs7qqu6q6urqq+9MRM9VdXT+yPl2Z+dTzzefJnxNeEIAABCAAAQhAAAIQgAAEIAABCEAAAhCAAAQgAAEIQAACEIAABCAAgQoEfq7CPuwCAQhAAAIQgAAEIAABCEAAAhCAAAQgAAEIQAACEIAABCAAAQhAAAIQEARnbgIIQAACEIAABCAAAQhAAAIQgAAEIAABCEAAAhCAAAQgAAEIQAACEKhEAMG5EjZ2ggAEIAABCEAAAhCAAAQgAAEIQAACEIAABCAAAQhAAAIQgAAEIAABBGfuAQhAAAIQgAAEIAABCEAAAhCAAAQgAAEIQAACEIAABCAAAQhAAAIQqEQAwbkSNnaCAAQgAAEIQAACEIAABCAAAQhAAAIQgAAEIAABCEAAAhCAAAQgAAEEZ+4BCEAAAhCAAAQgAAEIQAACEIAABCAAAQhAAAIQgAAEIAABCEAAAhCoRADBuRI2doIABCAAAQhAAAIQgAAEIAABCEAAAhCAAAQgAAEIQAACEIAABCAAAQRn7gEIQAACEIAABCAAAQhAAAIQgAAEIAABCEAAAhCAAAQgAAEIQAACEKhEAMG5EjZ2ggAEIAABCEAAAhCAAAQgAAEIQAACEIAABCAAAQhAAAIQgAAEIAABBGfuAQhAAAIQgAAEIAABCEAAAhCAAAQgAAEIQAACEIAABCAAAQhAAAIQqEQAwbkSNnaCAAQgAAEIQAACEIAABCAAAQhAAAIQgAAEIAABCEAAAhCAAAQgAAEEZ+4BCEAAAhCAAAQgAAEIQAACEIAABCAAAQhAAAIQgAAEIAABCEAAAhCoRADBuRI2doIABCAAAQhAAAIQgAAEIAABCEAAAhCAAAQgAAEIQAACEIAABCAAAQRn7gEIQAACEIAABCAAAQhAAAIQgAAEIAABCEAAAhCAAAQgAAEIQAACEKhEAMG5EjZ2ggAEIAABCEAAAhCAAAQgAAEIQAACEIAABCAAAQhAAAIQgAAEIAABBGfuAQhAAAIQgAAEIAABCEAAAhCAAAQgAAEIQAACEIAABCAAAQhAAAIQqEQAwbkSNnaCAAQgAAEIQAACEIAABCAAAQhAAAIQgAAEIAABCEAAAhCAAAQgAAEEZ+4BCEAAAhCAAAQgAAEIQAACEIAABCAAAQhAAAIQgAAEIAABCEAAAhCoRADBuRI2doIABCAAAQhAAAIQgAAEIAABCEAAAhCAAAQgAAEIQAACEIAABCAAAQRn7gEIQAACEIAABCAAAQhAAAIQgAAEIAABCEAAAhCAAAQgAAEIQAACEKhEAMG5EjZ2ggAEIAABCEAAAhCAAAQgAAEIQAACEIAABCAAAQhAAAIQgAAEIAABBGfuAQhAAAIQgAAEIAABCEAAAhCAAAQgAAEIQAACEIAABCAAAQhAAAIQqEQAwbkSNnaCAAQgAAEIQAACEIAABCAAAQhAAAIQgAAEIAABCEAAAhCAAAQgAAEEZ+4BCEAAAhCAAAQgAAEIQAACEIAABCAAAQhAAAIQgAAEIAABCEAAAhCoRADBuRI2doIABCAAAQhAAAIQgAAEIAABCEAAAhCAAAQgAAEIQAACEIAABCAAAQRn7gEIQAACEIAABCAAAQhAAAIQgAAEIAABCEAAAhCAAAQgAAEIQAACEKhEAMG5EjZ2ggAEIAABCEAAAhCAAAQgAAEIQAACEIAABCAAAQhAAAIQgAAEIAABBGfuAQhAAAIQgAAEIAABCEAAAhCAAAQgAAEIQAACEIAABCAAAQhAAAIQqEQAwbkSNnaCAAQgAAEIQAACEIAABCAAAQhAAAIQgAAEIAABCEAAAhCAAAQgAAEEZ+4BCEAAAhCAAAQgAAEIQAACEIAABCAAAQhAAAIQgAAEIAABCEAAAhCoRADBuRI2doIABCAAAQhAAAIQgAAEIAABCEAAAhCAAAQgAAEIQAACEIAABCAAAQRn7gEIQAACEIAABCAAAQhAAAIQgAAEIAABCEAAAhCAAAQgAAEIQAACEKhEAMG5EjZ2ggAEIAABCEAAAhCAAAQgAAEIQAACEIAABCAAAQhAAAIQgAAEIAABBGfuAQhAAAIQgAAEIAABCEAAAhCAAAQgAAEIQAACEIAABCAAAQhAAAIQqEQAwbkSNnaCAAQgAAEIQAACEIAABCAAAQhAAAIQgAAEIAABCEAAAhCAAAQgAAEEZ+4BCEAAAhCAAAQgAAEIQAACEIAABCAAAQhAAAIQgAAEIAABCEAAAhCoRADBuRI2doIABCAAAQhAAAIQgAAEIAABCEAAAhCAAAQgAAEIQAACEIAABCAAAQRn7gEIQAACEIAABCAAAQhAAAIQgAAEIAABCEAAAhCAAAQgAAEIQAACEKhEAMG5EjZ2ggAEIAABCEAAAhCAAAQgAAEIQAACEIAABCAAAQhAAAIQgAAEIAABBGfuAQhAAAIQgAAEIAABCEAAAhCAAAQgAAEIQAACEIAABCAAAQhAAAIQqEQAwbkSNnaCAAQgAAEIQAACEIAABCAAAQhAAAIQgAAEIAABCEAAAhCAAAQgAAEEZ+4BCEAAAhCAAAQgAAEIQAACEIAABCAAAQhAAAIQgAAEIAABCEAAAhCoRADBuRI2doIABCAAAQhAAAIQgAAEIAABCEAAAhCAAAQgAAEIQAACEIAABCAAAQRn7gEIQAACEIAABCAAAQhAAAIQgAAEIAABCEAAAhCAAAQgAAEIQAACEKhEAMG5EjZ2ggAEIAABCEAAAhCAAAQgAAEIQAACEIAABCAAAQhAAAIQgAAEIAABBGfuAQhAAAIQgAAEIAABCEAAAhCAAAQgAAEIQAACEIAABCAAAQhAAAIQqEQAwbkSNnaCAAQgAAEIQAACEIAABCAAAQhAAAIQgAAEIAABCEAAAhCAAAQgAAEEZ+4BCEAAAhCAAAQgAAEIQAACEIAABCAAAQhAAAIQgAAEIAABCEAAAhCoRADBuRI2doIABCAAAQhAAAIQgAAEIAABCEAAAhCAAAQgAAEIQAACEIAABCAAAQRn7gEIQAACEIAABCAAAQhAAAIQgAAEIAABCEAAAhCAAAQgAAEIQAACEKhEAMG5ErYqO23K2aU1OXvN7bsph4/05IG8v6VNt2H/8ta6HF7alPXom/Vr63L4YvK5fwddU9/5ryxdkvsyyqflOHvtTvbpWQsBCEAAAhCAAAQgAAEIQAACEIAABCAAAQhAAAIQgAAEIAABCEwdAQTnBn/SUKjdlMMPX5LD1+7I+q3wT7d74GKecHtHzh65JPcdWU8E54s97/MdubLUk/seXpMrqWsb5fx+Ga9c7MkDKnB75Rax5covd6owfIQABCAAAQhAAAIQgAAEIAABCEAAAhCAAAQgAAEIQAACEIAABDpPAMG5yZ/w2ponBFvBWYXbK9fCPxWUs4XbSGx+uCdnbyUFXzeC85qcXerJAw9fkgeOrMkV7/t4y8rnv2OPfWRNDi+tyWEjeLv3PXlgScVvvZ6wXPF5eQMBCEAAAhCAAAQgAAEIQAACEIAABCAAAQhAAAIQgAAEIAABCEwlAQRn97PeWjdi7X0PXxLzl5Ey2m1aeXlrU87Gqa+t4Hzfw/1ptfX8/YKzi2xWUdkKu+vmeGvygArAus/SerbQ7Ao80vndQURU4E6Xz4jeyi6VItwXxpMj8A4CEIAABCAAAQhAAAIQgAAEIAABCEAAAhCAAAQgAAEIQAACEJgGAgjO5ldU8ddLQR2Jz2lRtd4f3ArOh+M5nZOj96fU1vme7bzJ66ZsKjhHUcdL6yb62E+xbY6k2+VFOsfXrCm9k/O6d/3ntyJzLMY7Ud4so7JEUdlxmu1ra/KAz9QdnCUEIAABCEAAAhCAAAQgAAEIQAACEIAABCAAAQhAAAIQgAAEIDA1BBCcc37KcL7jnI0Kr77jpc2+E829PDjC+b50hPWtaE7nWHD2Tm5SZfdsumtNee3SXseCbw3n906Xfmujmz3BXiKBOn0N6R35DAEIQAACEIAABCAAAQhAAAIQgAAEIAABCEAAAhCAAAQgAAEIdJoAgnPOz1er4HxrXQ5rqmmTclrnO9aXFZyz5nC+cm1dzl6LBOZ0+cyx1oI5nEXuyHpqHmgzL7Sbx7mO82vEcipdtv2sQvMdWddzGTHclc0J6+kL4DMEIAABCEAAAhCAAAQgAAEIQAACEIAABCAAAQhAAAIQgAAEIDAtBBCcs35JI5xmp5vO2rzwOo1EPhIKzprS2syJvOTWu/TVdp7m9LHXr62HkcwuojlYJscK9h/x/HG67FsqMCd/8TkiwflKvII3EIAABCAAAQhAAAIQgAAEIAABCEAAAhCAAAQgAAEIQAACEIDANBNAcO77de/I2Wi+5L6vRl2RI/jKrWiO5oc1LXZP7hsw97JNX51Kn+2LzVr2OJV2qsCVz6/zRUepujOWcTS2Hv/hbKE8VRI+QgACEIAABCAAAQhAAAIQgAAEIAABCEAAAhCAAAQgAAEIQAACU0AAwTn1I5pU2nEUcvilEXtHmZc4V/C9I1du3ZErF3ty38OX5IGlzSjtdnh+/WTK4JVv/damXPHSb1tBOpxPOT5K5fOHKbtVkH9gaT2ZlzpK3W3PPYbI8PgCeAMBCEAAAhCAAAQgAAEIQAACEIAABCAAAQhAAAIQgAAEIAABCLSJAIKz92sYsTkvOli3GzXVdobgq/Mgq8h8XyRkr+tcyWau5zW54uZg9soYCs42GvuBi8l8z2UF5+Ln1yhsG72snPSc6xfX5HB87qgsS37acK/gvIUABCAAAQhAAAIQgAAEIAABCEAAAhCAAAQgAAEIQAACEIAABKaOAIJz9JMOFZtLbpd5pxjBOYo+1vd5wrJJsZ2TmtqPaDbHiERgFX+vaSSyzvE8aA7nauf3hWwnOIt3fvtej90vgmeyYCUEIAABCEAAAhCAAAQgAAEIQAACEIAABCAAAQhAAAIQgAAEINB5AgjO+hNGkctGAFYROP7LEH2jbf2o4iJ3QRy5bI7dMympde7j9Zyd12/ZNNbrGVHOIpp+20ZC23LYdNwmMlrngb7Yn5J7pPOrAP5wkio7FpxVXF5aM6m19fuYSSSmqwDOCwIQgAAEIAABCEAAAhCAAAQgAAEIQAACEIAABCAAAQhAAAIQmF4CCM6lf1sVdzclWwjOOVhKpNZ5lzU9dSJs+yK3/z6Zi1nnd47TX8eR0WlBV0XqNXngiD1GLADXcH57ZTZ6WcudHNuK0S4luCOg5bjv4QzB3m3AEgIQgAAEIAABCEAAAhCAAAQgAAEIQAACEIAABCAAAQhAAAIQ6DwBBOeGfkKNWM5+3RETzWxSZW/KFY1sdn/BDptydmldBkVF+5uvX9uUK96K0c9vD6ZieToqO//YXgF4CwEIQAACEIAABCAAAQhAAAIQgAAEIAABCEAAAhCAAAQgAAEITB0BBOep+0m5IAhAAAIQgAAEIAABCEAAAhCAAAQgAAEIQAACEIAABCAAAQhAAALNEEBwboYzZ4EABCAAAQhAAAIQgAAEIAABCEAAAhCAAAQgAAEIQAACEIAABCAwdQQQnKfuJ+WCIAABCEAAAhCAAAQgAAEIQAACEIAABCAAAQhAAAIQgAAEIAABCDRDAMG5Gc6cBQIQgAAEIAABCEAAAhCAAAQgAAEIQAACEIAABCAAAQhAAAIQgMDUEUBwnrqflAuCAAQgAAEIQAACEIAABCAAAQhAAAIQgAAEIAABCEAAAhCAAAQg0AwBBOdmOHMWCEAAAhCAAAQgAAEIQAACEIAABCAAAQhAAAIQgAAEIAABCEAAAlNHAMF56n5SLggCEIAABCAAAQhAAAIQgAAEIAABCEAAAhCAAAQgAAEIQAACEIBAMwQQnJvhzFkgAAEIQAACEIAABCAAAQhAAAIQgAAEIAABCEAAAhCAAAQgAAEITB0BBOep+0m5IAhAAAIQgAAEIAABCEAAAhCAAAQgAAEIQAACEIAABCAAAQhAAALNEEBwboYzZ4EABCAAAQhAAAIQgAAEIAABCEAAAhCAAAQgAAEIQAACEIAABCAwdQQQnKfuJ+WCIAABCEAAAhCAAAQgAAEIQAACEIAABCAAAQhAAAIQgAAEIAABCDRDAMG5Gc6cBQIQgAAEIAABCEAAAhCAAAQgAAEIQAACEIAABCAAAQhAAAIQgMDUEUBwnrqflAuCAAQgAAEIQAACEIAABCAAAQhAAAIQgAAEIAABCEAAAhCAAAQg0AwBBOdmOHMWCEAAAhCAAAQgAAEIQAACEIAABCAAAQhAAAIQgAAEIAABCEAAAlNHAMF56n5SLggCEIAABCAAAQhAAAIQgAAEIAABCEAAAhCAAAQgAAEIQAACEIBAMwQQnJvhzFkgAAEIQAACEIAABCAAAQhAAAIQgAAEIAABCEAAAhCAAAQgAAEITB0BBOep+0m5IAhAAAIQgAAEIAABCEAAAhCAAAQgAAEIQAACEIAABCAAAQhAAALNEEBwboYzZ4EABCAAAQhAAAIQgAAEIAABCEAAAhCAAAQgAAEIQAACEIAABCAwdQQQnKfuJ+WCIAABCEAAAhCAAAQgAAEIQAACEIAABCAAAQhAAAIQgAAEIAABCDRDAMG5Gc6cBQIQgAAEIAABCEAAAhCAAAQgAAEIQAACEIAABCAAAQhAAAIQgMDUEUBwnrqflAuCAAQgAAEIQAACEIAABCAAAQhAAAIQgAAEIAABCEAAAhCAAAQg0AwBBOdmOHMWCEAAAhCAAAQgAAEIQAACEIAABCAAAQhAAAIQgAAEIAABCEAAAlNHAMF56n5SLggCEIAABCAAAQhAAAIQgAAEIAABCEAAAhCAAAQgAAEIQAACEIBAMwQQnJvhzFkgAAEIQAACEIAABCAAAQhAAAIQgAAEIAABCEAAAhCAAAQgAAEITB0BBOep+0m5IAhAAAIQgAAEIAABCEAAAhCAAAQgAAEIQAACEIAABCAAAQhAAALNEEBwboYzZ4EABCAAAQhAAAIQgAAEIAABCEAAAhCAAAQgAAEIQAACEIAABCAwdQQQnKfuJ+WCIAABCEAAAhCAAAQgAAEIQAACEIAABCAAAQhAAAIQgAAEIAABCDRDAMG5Gc6cBQIQgAAEIAABCEAAAhCAAAQgAAEIQAACEIAABCAAAQhAAAIQgMDUEUBwnrqflAuCAAQgAAEIQAACEIAABCAAAQhAAAIQgAAEIAABCEAAAhCAAAQg0AwBBOdmOHMWCEAAAhCAAAQgAAEIQAACEIAABCAAAQhAAAIQgAAEIAABCEAAAlNHAMF56n5SLggCEIAABCAAAQhAAAIQgAAEIAABCEAAAhCAAAQgAAEIQAACEIBAMwQQnJvhzFkgAAEIQAACEIAABCAAAQhAAAIQgAAEIAABCEAAAhCAAAQgAAEITB0BBOep+0m5IAhAAAIQgAAEIAABCEAAAhCAAAQgAAEIQAACEIAABCAAAQhAAALNEEBwboYzZ4EABCAAAQhAAAIQgAAEIAABCEAAAhCAAAQgAAEIQAACEIAABCAwdQQQnKfuJ+WCIAABCEAAAhCAAAQgAAEIQAACEIAABCAAAQhAAAIQgAAEIAABCDRDAMG5Gc6cBQIQgAAEIAABCEAAAhCAAAQgAAEIQAACEIAABCAAAQhAAAIQgMDUEUBwnrqflAuCAAQgAAEIQAACEIAABCAAAQhAAAIQgAAEIAABCEAAAhCAAAQg0AwBBOdmOHMWCEAAAhCAAAQgAAEIQAACEIAABCAAAQhAAAIQgAAEIAABCEAAAlNHAMF56n5SLggCEIAABCAAAQhAAAIQgAAEIAABCEAAAhCAAAQgAAEIQAACEIBAMwQQnJvhzFkgAAEIQAACEIAABCAAAQhAAAIQgAAEIAABCEAAAhCAAAQgAAEITB0BBOep+0m5IAhAAAIQgAAEIAABCEAAAhCAAAQgAAEIQAACEIAABCAAAQhAAALNEEBwboYzZ4EABCAAAQhAAAIQgAAEIAABCEAAAhCAAAQgAAEIQAACEIAABCAwdQQQnKfuJ+WCIAABCEAAAhCAAAQgAAEIQAACEIAABCAAAQhAAAIQgAAEIAABCDRDAMG5Gc6cBQIQgAAEIAABCEAAAhCAAAQgAAEIQAACEIAABCAAAQhAAAIQgMDUEUBwnrqflAuCAAQgAAEIQAACEIAABCAAAQhAAAIQgAAEIAABCEAAAhCAAAQg0AwBBOdmOHMWCEAAAhCAAAQgAAEIQAACEIAABCAAAQhAAAIQgAAEIAABCEAAAlNHAMF56n5SLggCEIAABCAAAQhAAAIQgAAEIAABCEAAAhCAAAQgAAEIQAACEIBAMwQQnJvhzFkgAAEIQAACEIAABCAAAQhAAAIQgAAEIAABCEAAAhCAAAQgAAEITB0BBOep+0m5IAhAAAIQgAAEIAABCEAAAhCAAAQgAAEIQAACEIAABCAAAQhAAALNEEBwboYzZ4EABCAAAQhAAAIQgAAEIAABCEAAAhCAAAQgAAEIQAACEIAABCAwdQQQnKfuJ+WCIAABCEAAAhCAAAQgAAEIQAACEIAABCAAAQhAAAIQgAAEIAABCDRDAMG5Gc6cBQIQgAAEIAABCEAAAhCAAAQgAAEIQAACEIAABCCQSWDzhx9krmclBCAAAQhAoAsEEJy78CtRRghAAAIQgAAEIAABCEAAAhCAAAQgAAEIQAACEJg6Arc/+FAeP/6a3POJJ+WRx18RhOep+4m5IAhAAAIzQQDBeSZ+Zi4SAhCAAAQgAAEIQAACEIAABCAAAQhAAAIQgAAE2kTg8htvy66FRfno3CnZtu9F2Tp3WnbOHZOXLr7ZpmJSFghAAAIQgMBQAgjOQxGxAQSmm8APfvADeeedd/iDQeF74N1335Wf/exn010xGr66O3fuFOZPfaW9cveA3je8INAEAY2wIMqiCdKcQwn86Ec/ok/ELi19D9An0n6MSkCfb/Q5x9lZLLG5i9wDN2/eHPXWY/8ZJqD2tUYz75g/Llv3Pm/EZhWcjei89wXZuXBS9jz2grx760czTIlLh8DkCfzTP/0T9gHPJ6Xvgb/927+d/M07gRIgOE8AOqeEQFsIfPjhh3L5yrflj45f4Q8Ghe+B81//luhABV71Ebj2ndfl9ZMH5cqf/BZ/MCh0D+j9ovcNLwiMk8CPf/JTeers67Jt91Hzp+91HS8IjJPAd16/JKtPP1qoLaTfxG7Qe4A+cZw1cnaOrc8333r1RdoebPFS98C3X7tgBkrNTk3hSusioNHLGsWs0cxOZM5a3rvntGzf87Sxyes6N8eBAATKEdABSK+/dKxU/8BzCs8pq6ur5W60KdkawXlKfkguAwJVCKjg/BeXvi33PXyJPxgUvgee+fffRnCuUuEG7KPC4ZXf2S6XP/kR/mBQ6B7Q+wXBeUCl4quRCWhqv4/vPyHbFzS13znzp+91nX7HCwLjIqCC8+X9P1+oLaTfxG7Qe4A+cVy1cbaOq4Lzt5/7Am0Ptnipe+Dq//s8gvNsNRUjX61GK2vUskYvb937wkCxORGgzxmb/P6HTsva9xn8P/KPwAEgUJKACs4qIPPswbNHmXsAwblkRWNzCECg+wQQnBHaqww2QHCuv+4jOGO0ljFaca7XXwc5YkJAU/t95rMvmdR+W+af63OC6TpN+6fbkGY74ca7+gggONMn0ifWV584UnECCM60PWXbHt0ewbl4HWNLMVHKGq2sUcuJmGxTaBf5vGXujIl2fvz4a2Qd4oaCQIMEEJyxEarYCAjODVZSTgUBCLSDAIIzgjOCczvqIoIzxmtZ45VornbU3WkqhZ8++54CTjCzze6jxnFGmu1puhMmfy0IzvSJ9ImTr4ezWAIEZ9qesm2Pbo/gPIutRflr1qhkjU5OMgcVF5mzhOiPztmsQ9f+6r3yhWEPCECgNAEEZ2yEKjYCgnPpqsYOEIBA1wkgOCM4Izi3oxYjOGO8ljVeEZzbUXenpRT96bOLOsFsej/SbE/LndCO60Bwpk+kT2xHXZy1UiA40/aUbXt0ewTnWWspyl2vDsrUaGSNatbo5CzxuOo6zTq0fW5RHnn8Fbn9wYflCsbWEIBAKQIIztgIVWwEBOdS1YyNIQCBaSCA4IzgjODcjpqM4IzxWtZ4RXBuR93teimGpc8u6gAjzXbX74R2lR/BmT6RPrFddXJWSoPgTNtTtu3R7RGcZ6WFKH+dV7/3juigTI1GLmpTV9lu69xp2bWwKDqAlBcEIDAeAgjO2AhVbAQE5/HUR44KAQi0mACCM4IzgnM7KiiCM8ZrWeMVwbkddberpSibPruo84s02129I9pVbgRn+kT6xHbVyVkpDYIzbU/Ztke3R3CelRai+HVqtLFGHe+cXxQdlFnUjh5lu617n5cd88dlz2MviA4o5QUBCNRLAMEZG6GKjYDgXG895GgQgEAHCCA4IzgjOLejoiI4Y7yWNV4RnNtRd7tYiurps0mz3cXfu4tlRnCmT6RP7GLN7X6ZEZxpe8q2Pbo9gnP3636dV/CNb71loo016ngUAbnqvvfuOS07547JSxffrPOyOBYEZp4AgjM2QhUbAcF55psOAEBg9gggOCM4Izi3o94jOGO8ljVeEZzbUXe7VIq60mcXdYCRZrtLd0e7yorgTJ9In9iuOjkrpUFwpu0p2/bo9gjOs9JCDL5OtbM1unjn3HHRaOOi9vI4ttu69wXZuXBS7n/otLy98f7ggvMtBCBQiACCMzZCFRsBwblQ9WIjCEBgmgggOCM4Izi3o0YjOGO8ljVeEZzbUXe7UIpxpc8u6iAjzXYX7pJ2lRHBmT6RPrFddXJWSqZj0CsAACAASURBVIPgTNtTtu3R7RGcZ6WFyL/O5873TFSxRhcXtY+b2G7L3BnZOX9Mnjr7en7h+QYCEChEAMEZG6GKjYDgXKh6sREEIDBNBBCcEZwRnNtRoxGcMV7LGq8Izu2ou20vxfjTZ5Nmu+33QBfLh+BMn0if2MWa2/0yIzjT9pRte3R7BOfu1/2qV6DRwxpFvGPhGdGo4iZE5PLnOCfbF07Jfb/xZbn2V+9VvVT2g8DME0BwxkaoYiMgOM980wEACMweAQRnBGcE53bUewRnjNeyxiuCczvqbltL0XT67KLOL9Jst/WOaVe5EJzpE+kT21UnZ6U0CM60PWXbHt0ewXlWWojkOl32II0e1ijionbwJLdTG3z73KI8fvw10fLzggAEyhFAcMZGqGIjIDiXq2dsDQEITAEBBGcEZwTndlRkBGeM17LGK4JzO+pu20rhHGDbdh8Vk8p6X9EI5Ga3I8122+6cdpUHwZk+kT6xXXVyVkqD4EzbU7bt0e0RnGelhbDXqVHCH99/wkQNb9t3rhNisy90f3TulOzY85RoFiReEIBAcQIIztgIVWwEBOfidYwtIwKaPuXq997hbwwMSPXSTDVDcEZwRnBupq4NOwuCM8ZrWeMVwXlYrZq979uTPruoeG1T/KnTDqfX7N2vg64YwZk+kT5xUA3hu3ERQHCm7Snb9uj2CM7jqpHtOu7tDz400cEaJazRwr6I27X3W/c+Lzvmj8sjj78iel28IACB4QQQnLERqtgICM7D69bMbqHi5x8d+4Z84pGvmPk5fuH+L4j+bdv9tOycX+RvDAzUiHOcda4RZf+7nz8v3/jWWzN7H47jwhGcEZwRnMdRs8ofE8EZ47Ws8YrgXL6eTesebU2fXdT5Rprtab0zq18XgjN9In1i9frDntUJIDjT9pRte3R7BOfqdW6Se94tcXIdGLlrYVE0OnjbvlVZEZEb55cLi84L5zdkpTfkr8TxitrYA7c7cF1uyN/Jmf/rKXnp4pslaISbluEY7sknCHSLAIIzNkIVGwHBuVv1fOylVWHzD760LNs+ddTMc/FLnzop986d6cz8HAMNi5amV8wrszoilf0v7z4lO+eOyz2feEIe+tzX5NWVNeYeGbEmIDgjOCM4j1iJatodwRnjtazxiuBcU+Xr8GG6kj47z75LryfNdodvxpqLjuBMn0ifWHOl4nCFCCA40/aUbXt0ewTnQtWrdRsVEUp/+ME/ypmvvSF/+PSfy8HF1+Xg4qr5W7kpcvfmhixFn916szzQL0QvnL8td2/ezhWdb+jxeqv9Avbihmg5y/ytLCaZhrKE7qVFLd+yLEXXoGX+w2N/IU+dXZUf3v4g83dy58/6sgjHrP1YB4GuEUBwxkaoYiMgOHetpo+pvM+d7xmRWYXNX/7UM6KpRtIOMT4nBswkWGzd+4Lcs/tZ2T5/Qrb8+r+TL56+TBqYivUBwRnBGcG5YuWpeTcEZ4zXssYrgnPNlbBjh+te+uyitiNptjt2K46luAjO9In0iWOpWhx0CAEEZ9qesm2Pbo/gPKRiteBrJ5gWWbrivnTxv8pXjCh7I1coTkct5wnHRnDurcrCgeXMv4O9HMF534sZ26+KE7wPZhzP99EuHFCB/LrZ/kbvuhXMD7wopjySCOZLvdty971rsrD7qDx19nWHIFg6dsHKSAxPr+MzBKaRAIIzNkIVGwHBeRpbgxLXpBHNH5t/WnYsIDL7Bkrb36v4vG3uGZPe5tRXv0PEc4l7XjdFcEZwRnAuWWnGtDmCM8ZrWeMVwXlMlbHlh+16+uyidiVptlt+I465eAjO9In0iWOuZBw+kwCCM21P2bZHt0dwzqxOrV+ZF5n77q0fyZ7HXpCdC181UcBlUmfnCcdW4BW5cfN25p8Rc7MinPuyU0aRySLiRzIPtq81BfhtWToQDf40UdPe5yja2R7PDvy8/6HT8vbG+4V+wzyOhXZmIwh0iACCMzZCFRsBwblDlbzOoq59/wfyq7950qRq3jJ/lmjmPoOmaETKZLfTSPTt8yflV/Z+mXmeS1QQBGcEZwTnEhVmjJsiOGO8ljVeEZzHWCFbeOhpS5892DGW2JSk2W7hzdhAkRCc6RPpExuoaJyijwCCM21P2bZHt0dw7qtKrVrhInOLLP+/d96XM0+dk3v3nI7TTlvBOZq3OUcwvhEJwAd7t+VGhnDsIpzz7N88odrffmFxQ/Q8mppbr8UIxGYeZhETvewE5bRP1wjMG3IwWm/TbF/3orb1eFruaI7p86syN3dGds4fk8ePvzY0qAfBuVW3O4UZIwEEZ2yEKjYCgvMYK2VbD/3Ka9flYwtfli1zzyE0p42Sjn7WQQOaDv0Lp1baetu1qlwIzgjOCM7tqJIIzhivZY1XBOd21N0mSjG96bMTYdl3qPW/J812E/dZm86B4EyfSJ/Ypho5O2VBcKbtKdv26PYIzt1vIzSq+Y8v3JAb8neydOBctn84Sl+torIKtEvpdNYDfKhGUJaKEc4HohTaur+m5d5nxW8X4bwQpcxW4TdLeLZidpROe1HTer8o21SEjuag1nTacbptM9f0dVnQa4nEbCvU/zT3R0ZwzkXDF1NGAMEZG6GKjYDgPGUNwbDLUUHyY3tPyrZ9OcbEAGOh3xFW1GHGdk2x27HwrPyfh746dDTesPtk2r9HcEZwRnBuRy1HcMZ4LWu8Iji3o+6OsxSzkj67qG1Imu1x3m3tOjaCM30ifWK76uSslAbBmbanbNuj2yM4d6uF8AXSn/5M5O7bfynb9zwt/+Y/5c+jrLZqKOyuhqK0isIm6ng5XB/7lbPnbg7mdI63jfzGvtB8c0MOxhHM7lyhfzmOgPbTZ7sI6Js2etlFYlvB2QrLGn0dpw03QnQkOEfl2TJ/WVbkh/LnZy7I7Q8+DH5sK0YHq/gAgaklgOCMjVDFRkBwntomIbwwTUmoQqQKkkUdXGwXGjKd4TG/JP/rbz0r6rDllU0AwRnBGcE5u240vRbBGeO1rPGK4Nx0LW3ufLOaPruofUma7ebuxUmdCcGZPpE+cVK1b7bPi+BM21O27dHtEZzb3274IrOWVj+/v/43cqQnsvL0KesbNhHLoe9zYXFVTARwlMp6ZXE5jvx1Iq0Tem30sb//st03EntXXMrqgUud49lPf33dE5rdsbMFZ2tHL8tBLaMRi+12eq02GtrO/2zemzTbUcS14RHNLW2uMxSct5mI6tuy9PvPyq6FRdHMS+6F4OxIsJwFAgjO2AhVbAQE5xloHdSB9y9/+4xsm19CbE6PnpvSz5ou/eP7T4qmyOHVTwDBGcEZwbm/XkxiDYIzxmtZ4xXBeRI1dfznJH22c6YNW5Jme/x34+TOgOBMn0ifOLn6N8tnRnCm7Snb9uj2CM7daDWcOPrBBx/KIyfekH3z/1G+KT+SpThyuN/2NHMvm9TTVsRNxGU7n/KNaD7luxnzNqvoq4L1wYw/FbHv3kzSXIfbLNuU1rGPVlNqR4KwWVrB3My7HKxPhGojOB9Qsfy6LKmovqjXlhKcbxaLcI4F5wMvyta9z8uO+ePymc++JD/8x58Z4V5/fWXLCwLTTgDBGRuhio2A4DztLYOIiWxGbO43ouzot+ldr6KzRjrrgANeIQEEZwRnBOewTkzqE4IzxmtZ4xXBeVK1dTznJX12NTuUNNvjuR8nfVQEZ/pE+sRJ18LZPD+CM21P2bZHt0dw7k578ff/8GN57th/lINPf1MOnlfReEOW+gThtOD7oiy49NYutbWb37h3XRbM+5TYG4vFkX1rttF5n+1nI2TrfMyF5oG2kco3zmeL10as1rmXJbsMOodztuBsrz13Duf4GvT8tuw6f7VGct+z55tySUQ2rr1pfnwE5+7UAUpanQCCMzZCFRsBwbl6nevEnk+cuSIf20ca7WkXl3Ovb+GM/Mbvv9iJe7XJQiI4IzgjODdZ4/LPheCM8VrWeEVwzq9PXfqG9NnVhOa0vUea7S7d9cPLiuBMn0ifOLyesEX9BBCcaXvKtj26PYJz/XWxziOqGPrhT/5JvvOX78il//S2fPONd0TTW+t8xncz0127lNLLkSitEby3xaTT3qfrVNy9bdJla5Tywr4XRUXdvChntVltpLQ7bvRZopTWUZSyltOl6Q7t3EEptCM72qTIzhecrVh9XVZuWvHZlue24aDrYg4asR1dU1IGKzivaFR2JDzb/f9S9i2clE88ckl0EkNE5zrvWo7VRgIIztgIVWwEBOc21uaayrR85a9l18IJ0mjHI9Tqce4lBkg3jrdz77PyR4t/XtNdNR2HQXBGcEZwbkddRnDGeC1rvCI4t6PujlIK0mfXbT+SZnuU+7FN+yI40yfSJ7apRs5OWRCcaXvKtj26PYJzu9uI5873ZOfcMbl3z+nIJ7wsGqlrhNXF67JyfjWVwtqzTxevy9KijXhe0G1vitzQqGb1rarI68TZKOK5fx5nPZYVjI2grFHNToDOScPd72etQXCOhHUV2TXa2RfIVTyOhW7/mmL/sSt/FKEdzf9so6ZflHvnzsi+V34od+Uf2n0jUDoIjEgAwRkboYqNgOA8YsVr6+5r3/+BfGzhy7Jt3zkE59hg8AyoGVv3sb0n5ZXXrrf1dm28XAjOCM4Izo1Xu8wTIjhjvJY1XhGcM6tSJ1aSPnu8dihptjtRDQYWEsGZPpE+cWAV4csxEUBwpu0p2/bo9gjOY6qQIx727Y335f6HTsuOhWdk694XzBzGyRzMkcjsUmVrBHOm8LwsZp8oCljFZycIp6OWt7k021EUsNvOiLua7lrnVNbjiM7HbCOiNaW2284sXYrtwE+bCL46Z3Tmn4kwzo9wdim1NY24phBfiYRnPedQwdkXmJ2wfj5V7n0X5Iy5tv8mN/7beyP+cuwOgXYSQHDGRqhiIyA4t7M+j1yqX/3Nk6Jz+AadeNB5j9fpxXnbxXfr3udlx56nmM85qlkIzgjOCM4jdzO1HADBGeO1rPGK4FxL1Wv0IKTPbtYmJM12o7d3rSdDcKZPpE+stUpxsIIEEJxpe8q2Pbo9gnPBCtbQZmpvf/H0Zdk5f0y2/P4rsqRzNRsxVFNYq/Dbb4+66GVNLZ18nwi9Np223c8ItO54aeFVReVYlI4iqVMCtJ0PWtNT2zTU/cu0cGzLUX0OZ00H7q552YreXnS1E5wTBknq79ifrcK4E9S9fePvjY99Vb5puLwtX/vT1/C5NnS/c5rmCCA4YyNUsREQnJuro42d6Rvfekt2zh1HbEZgD+6B7Qun5Kmzrzd2H7b5RAjOCM4Izu2ooQjOGK9ljVcE53bU3aKlIH22c3Q1vSTNdtF7tE3bITjTJ9IntqlGzk5ZEJxpe8q2Pbo9gnN72ohrf/WefHz/Cdk290yc5fJgT6N6bVrsUCBN26TLcjAWi6PvNOI47U/VqGiNhs4QrvuOf2BVDsZib/p89rNGOYd/6e2WZUmvYdD5Dtiy95U1XXbzOeOadL2K5UOua2FxQPpx79gfnTslv7L3y6LPP7wgMC0EEJyxEarYCAjO09ICeNdBdHPaUOGzNQDPybbdR0VTWs76C8EZwRnBuR2tAIIzxmtZ4xXBuR11d1gpSJ/dDtuTNNvD7tR2fY/gTJ9In9iuOjkrpUFwpu0p2/bo9gjOk28hbn/woRw6+nXZPrcoavP1Cb+Zwms7bNRpLeuW+bOyY/64PPL4K6K/Dy8IdJ0AgjM2QhUbAcG56zU/Vf6XLr4pOxdOYmhgWGXeA1v2nDIGaeq2mbmPCM4IzgjO7aj2CM4Yr2WNVwTndtTdvFKQPrudTjzSbOfdse1aj+BMn0if2K46OSulQXCm7Snb9uj2CM6TbSE0inbXwqKoj29axdsuX9fWudPm91EfPS8IdJkAgjM2QhUbAcG5y7U+o+zbPnVUdL7eLnfMlH2czkqinLXaIDgjOCM4Z3QgE1iF4IzxWtZ4RXCeQEUteErSZ4/Tfqvj2KTZLngrT2wzBGf6RPrEiVW/mT4xgjNtT9m2R7dHcJ5Ms6FZhB763NdMFC2+3zrs4/EdQ38fDQjb89gLZJqcTHXhrDUQQHDGRqhiIyA411D52nKIq997R3bOLyI2E908+B6YOyHnXv1uW27biZQDwRnBGcF5IlWv76QIzhivZY1XBOe+ajTxFaTPHp+jahyDMEmzPfEqk1sABGf6RPrE3OrBF2MkgOBM21O27dHtEZzHWClzDm0yWs4dk3t2PzvY54dPtFV87t1zWnbOHZNTX/1Ozi/Lagi0lwCCMzZCFRsBwbm9dbp0yT5/8pty76efaVXHOg5HGccczbF579wZ+cQjXyl9f03TDgjOCM4Izu2o0QjOGK9ljVcE53bUXS0F6bNHs8cmbc+SZrs9dcmVBMGZPpE+0dUGlk0SQHCm7Snb9uj2CM7N1dK3N943UbIaLbt17wulfL4He7flxvnVZJ8D1+WGiKwsLifrBgnUB67LSm9VFqJtFhavy8r55HPt9uyBVTm4WPLvwHCb/GBP5O7N6/F15Jd7VZZ6G7K06I65Kis3b8uNvL+ex3YAR/3dts+flPsfOi36e/KCQFcIIDhjI1SxERCcu1LDC5TzY/NPy5b5s8WMhgEdYX7H6zpcll1n9Eu/9iW5/cGHBe6q6dyk24JzT/Y/jGBcRTAedZ9n/v23RR0yvOojgOCM8VrWeEVwrq/+jXIk0mdPiy1Mmu1R6kHd+yI40yfSJ9ZdqzheEQIIzrQ9Zdse3R7BuUjtGn2bp86+Ljvnj4lGyVbxQy6cV8HZE5cXN+SubMjBQj7hZVm6GQq1erxEuF0WFbSLH2+4/WyOL5Iv8KaE37u6rXd9RhDvbchK+u+mlvO23Eiv712XgynB2ojTsZC8KiuRQL9wYFn8P93OP3eR32fL3Bnze37x9GUzeHf0O4QjQGC8BBCcsRGq2AgIzuOtl40dfe37P5Dte56uZIAU6RQnv03YsfudfP77lDFjRvLdlqWUMaHXdvD87fGO0itkzKXKO8Z9ts+dkJe/8ZeN3Z/jPNF33/q70oefnOC8JpdFZP1iT6qKn4evFd9//5EB51nalLu31geI12ty9tqmnF1y4vaaXL51R9bz/q6t5V/TkXW5fG0tPtf+pXW5fDH5nM2ivvMrs7sZ5dNynF0awCgl7CM451e1v3n/Q9G/sq92Cc4PyuZ7b8n6o6FBuXZV5M7Lu6SckfWgbEr/sYofQ/cved5Hn5DNq0/IWqr8lz+p13Wh77oGl2WX9B4d8PfJkNHgY9W7LYLz4FpWpU8cfMTw29rTZy9uyI1ekWiDLBvJOoDKOHoWzmc4oNKOJ89pVZv9O/FojSx+ybppSrOtUTyHFof8nb8d3tg1f1q/9Q/yt7d/XPqo7RGc6+wPR+0DyvSHD8r61Quy/qQ7p72OO++9JZl/Vx/M79tNn/qg9KL+rvfkE7L5cvK5yX5v0LnoEzfk0L4XRQWK4a8NObO4Kmd6bssNOZQSDwK/wuKG27B/efO6HNL+K/pG+7FD55PP/Ts0t6aKHdAuwbnO9mcC9vgnPyJrV9+SOy977cujT8gdEdl8suDzREfan1kXnKv29UVbg2t/9Z6Jht2+cEq27TtXwte7LAfPb8R+z1BwtgLyDY1Yzmj/Qrs3Epsl9KFawXlDljRy2gjDG32CbXicxN4sst4ev+izQXQ9vu0e2NzXZeWmRiv7EdMasb0hS+eTdS56Oy5fIMq7541kexeBrWJ8meeQ+Pj6e849Ix/ff0L0d+ZVL4E2PAvUe0X1Ha2KjdANwbm+ZwD1/93NeEbQZ4H1ov247y978oLclQuyFtsHBW0B7xhrL78ldzLKNOgZYdLfITjXV28neqQnv3JF7t19soQRUq7TTzrGSe1nO/m7bjSbiJiRbO6zjroz62yqE32/EqdAicpsBOeskXzOgPBG/Y1R7J08yxdF0yh+5rMvTfSerevkv/Pv3pTdh74jF759q/AhiwnOkTicJ7BmrfeE5P1La3I44+/yLZG7t1TIzfh+kEAciZ/FBeeenNVzOaH3iBVwL1/bFPN3647clTv2vVuXEoFDodbyuLzUExWy/b/BZYrK4Ynb+y/e8cTunhy+pmXZlMMpgXeU8wflu3hH1vXavHLf97AtVxnxH8E5v4qp4aoDBz7/3H8tJTy3SXA2huV7T8TOZWegDROce08+KGsZf+vvidx970Lmd2tP7orPk7f/ZrT/esax1x7NMFI9Q9aV3S4HONsezSr7LrlsjiWRgz7qXyOHvfav5QV45/wffYlzPb8e6jfaHz7w//Tk8ps6ZKG+Vy3pszMcWwvq0LmpkQX9Awt9e2khcBQlDp8VE3WRdiRF3x/ot+usE+t2f9RDJDrf0OPFEQ2ezWscT87WLLb07VBz3glHa/g8895PQ5pt4/g7sJwrOi/owNNBQlIN1UZt0v/ld6/I0a9+v5Tw3BbBuWp/aAY4aR+RJ/BmrfcGdNXRH4ZOIitWq8iTHkQ1uG/fJbYPT2yC3stvyd3YRthlBCXnPAr73NH7uTLH61afGInDGe19lvBh1nlCcn9Umh1AdEjr9AEVkjMGFN0MhWjTLsf135bnkIomsU/BvtfttN3Oft2WM+acNi2tbmPbHff5dpSq1voYso8xvrVV7IA2Cc5V25+89qNxe/yTHxFtLwJbOddGz2ovutP+zLrgXLWvH1b71eZ+/Phrsn1uUTQaNs9my19vRVhnh2pbFouiUTpt6zvtt2fdPtv2RWKzto2R4LxwYFWWdGBN5HvVgTbpyOD8Mnk29RBfq7XVVXBeljz73wq+y2abwaKvXkcomKsNODQi21yrSxse+aI1OjrVVyjHmO2Q68piowM+9Xc+dPTrM52BclidKPt9G54Fypa5qe3VZ6c+9DLCczcEZx3s5QvF5Z4B/OcEI+7qIFMvAOPyJ23fHPTtniA80Hb3bYBoAFpZ8dg8hyA4N1VNRjrPz420dwt3VvHQOIkqdHJZHV/b1yVGiDNcrBGQGEhuvbeMnJrp0WvpYy0Uncukw6w19bqmYJ+Gl3aWLkK2qPBcTHB2kb3ZSxUv3XnvO7Iu6yJyOY4GdiJrJO46QXfAcj0Sh+NjqiCasb3Z7lbWcbOilTUq2UX3hiLx/ijC+bAnwgbXpOKvbhMLwS46u18oV2E7W7iNOMgdOXsk4WgF5005e+2O4bZ+a1MOe9/HDCqfX9lpNLYT163I74T29WvKSq8nLFd83pTw7dYjOOe3GE5wdqyKCs9tEZyNAReNOjTGpEYmvPeWbF69IHci4de+15GFiQM62faC2dZsczV5r5/7/ozD3Y5wdIarCtN922Xt68qTYWxaI/SJwDC2kVn5gnPvZb2+t0zUhRGS9b1enxrFsWM93H+wkz7LcVbvum451/PrzLi+0X7Q1cO6hOe60mebOeRupgSBKL1dOu3djZv+AEHn9ErtmyUuDBGOjc2XE9Wh4kaYQs+zITWCrk8k0TndNM2gRnYMEcyD9IPhcfttbnu9gQOrjmiNwnZrt9NsG24aeZhyCrrP5lkhFpzGUxPVCe3qYRnhuQ2Cc/X+cHhbr46b2CETR/y5/ZzIMmJ/6Dt1NMOHGSTVP7hKRahsp1FUjlSWEsNFs4WofWBE9QsZGUXctTS3nKY+Ueto/Irm2TwURyM7kXdI9gIvu0Hm4BIzoMgJwS46ur9vUUFZ+4v+V1SOfcty5mbyrXVur8qZRRVAtL+w/UOyRXPvqtgBbRGcq7c/u2zd9OzpOzl2dGxv12qP75K1l5NsQnodSfsSOamvhs5r58iO20TjuO5W+4PgXK2vH9QaOJv7o3Ma1TzMXsz73tqRzjeqbZmzKfvtXG0PU4Lsvsi+NfayDqTR75dtRHPvulkmKbWjMqiQbezhvDIVX5/4Z4fMnWyeFVI2cySoO5uv6FJTbWdlwrS/Qb6vuUpK7azfdcueU7JrYVH09+c1OoE2PAuMfhXjOYJ7PtFlUeG5K4KzDZpwfrYyzwApG8Lz/2kGROv/C31iYd89xO4Pnk0+IpcfTUdKu/OnMjJ5fkdjH2X4AEuVo6hAXtN2RDiPpw43ftT7HzpdcfRb8Y4/q2Oc1LrECHHlzzcCth3QNCq3I6dgEtViDYqUgRUZKM44m9T1jf+85+QX//kXG79Px3FCX3B2necw4bmc4BxFwhqRMhJNjcCciJVhxK5uUz56Nozm1WO4COtQXM4UnE20cn+EsOFxZC0Sc50IG6XFjrIE+CmyE8HcXeeanI2jnm15NCra30ffq1DVLzg70V1FZctqv0ZZX9wUcw26z7X1bKHZCb5me5d6u+z5o2t4+JLo75Mun/nNlEEqUt0Xxt395JYIzvk1OC04O2bDhOc2CM7WuRWlv9ZRjBqZ4EUVG6e0pqqO13kO85QxFjrKIsPTGZh9qa71+8gJ5UV4DTMaw5Gbzrh1DqpwpLp1dhUwjgOB+SM2whnBOf+Gb/E3vqPZ1cOqwnPt6bOzHGc5gwFDOyjlTMo6Tmpdv0PN2ovGfhwQaWwiPrIinFPHjyM/sjLq9G1rhQvrnJtgtEZGuULOzqa2y66m2XZO1f4BAnZQgLnmBgVnVw+LCM+TFpzr6w+dwOIN0DICczLVhDlX3M/U2B8++qCsx6mvrbPprqQcOO+9ZWzXRBBK9aVmIJYta88cLxp8pkJz5tQVbv/ml90UnK1oq/NsupTUYgTmRMS1Aq73vUT7ZIrA2Z1y5uCSmxtyJk59bQVnbc/T7YW2E9pfhC8netuoOhWcVWA5c15T00Z9zKL6HcK9mv5UxQ5og+BcX/tjI4z7MhCM1R63bd5mlM5fryVuX6LBNca+iJ6//fduH/dMcLdD7Q+CcyI4l+nrs9qE2x98KI88/orsmD8uan8Nss+Gf5cjOHtibOzvNOsyxFaXJSjrexMhnPhVzaBRE/XsDxYNbcrhZU627/f1Jt/1H2fAM0LGYNB0W+/a7uS4y+LSeHimNQAAIABJREFUZR+MBhBtUwHey6bpi9jFnxsGXYP9buve583v/9Dnvib6DMarOoE2PAtUL/1493Rtlb8cJjx3RnAe6RkgseGDPjzy91kbRTMYhs8U/nR8xk+X0c/7fX7w3hOQ3SA0ja7WdN7us1tmrk/5Iof5EZv+HsF5vHW5saNrtKpGrSYd5fAOrcvb9hshAwTnfdZoMKlWNO1L9CCoRlbmiLTIgMof4TYdbH/p1740FWlbsgRn13nmCc/lBGcrINu0z5HIbATnROA1cxIHcwH7grMTjvuFWiPcRpHRevz1YJ5hu19aBM5MXx1EAidCq+OQuYwinPc7cXfoMrs8euz+MiWR1ftjcT4SvK+tm+jjvvmjdbu8SGdTtjLntyJz0JnHHb/+hsnvE6fZXtqU9TiaO5shgnN+l5YnOLt7L094bofg7CISItHWM/zUKCsU0eul29Hop82Xk/Sd62YOaN9oTIxZ51xKhOEBqUjN3G/RvHCpMoajOfX4vuMrEpyffELuaIrvLMM0S3CO06JGInZkXGu9ip1oWcca87puOtfz607d32Q5ml09LCo815I+Oy1u6uC/rIjknAhnM7danHHGdyZZe8939gTvIwHYRFNnCMfGfsxY72ziPKHafa9LTQOuIolO86L1wTjtnBMvJ71gYre2JVqjuC3btTTbLqohr25lilB5G1dc70c4u/rnloOE58kLzjX0h3Ef4NJOuwFdOodp0geZOZGDedAikdoMwLJCcW5q7kH9YXx+7QvtcRJBJ+l/+/t2nTfWpuLrxeJ4FHFw9QkTPZlk/oiOo9tpv5o5oCw51zgdPN3tE13a6UhkNoKzbd+12pk5kXu+4OsLzkNSc+97UTQyekXFgoGDS1xK7f6Kru2EttvJS+d7tun4b8Ti+G0b0bx43Sx1kHssoOuOut0EIp2r2AHtEJxraH8mZo/7dneYUrt/oGhklwftRjfbHwTnfsG5SF+ftCv23asraya6devc6Zr8uVmC82qcxSewdU27NUAoNsE7yXzQ1h7OGTwZDbzxbeYq7xObWW3VnHPFYrD/jODbtu55oT+DRfw8ona8ac+9/aJgJWvnu3mko2N5cz4novR1WYqfV7zjpJ+DSny+Z/ezsnPumLx08c30rcLnggTa8CxQsKiNb+baqKxlnvDcGcG58jOAG6gWBm9Yf7I+xyTPKE4A1oyA/nPNQL+hea5InoEGPRcYYTv29altEAnckT87fjbSz/F2zTxzDCp31ncIzo1X7/Gc8Bfu/0JNxkk9nWQVw6LMPqERomW2RoBxImV25r7RpdveNvOPmAbEpNzzGhYzT4l+HmB4ZZ6jG+xizruflrc33h/PDdngUQcJzq4TTQvPxQXnnhyOI3wvic7LbATasmJtlLY6Ea1T6a0zxV4nsIbbWnE3nI/YpMf2xVJTvkjgjiKzjaDtR/NGHVY6WtkK3D1v/umeveYo4jovwlnnina8zdKlHI8FZ0/ENQJ5av5oTf0dX0MN589kastgo5uTAQNaXrMufQ2pYyA451fsYYKzuzfSwnMbBGdnHNlRizrn8hNBems/pXachi+IcLIGaFYEVWwQ+oZiENGVMg4jR9naVY2+ssZtbNRG0deuvP7Sjqb0jVjfmZW8N9tlic5ZgnNczmR/PWe/kz51DYGhX/933XWu59efOr8Z5Gh29XCQ8OxS+W1f0FR+5+qzLTVdtT8P83l10CRzMS/pZ+fIMdFnGdEWzvaKIhZUVLYp8FLRaW67jKVxslWNcI6EA7Udb2iawZTtqdF6JsV2JJb489r1262DbMY855nOU5q61szPg45d9bvupNl2zwL9USyTjXB29c8ts4TnSQvOrl+p3h9qm6+pZR802UL0eJoxxEzvkO5nhvUVpfvDXUEmkmRKCbUvw2gE7ZvNM2DaUeNSfseCs9eHmehIO9VGbAuoQO2J6I5fk8vu9Ym3ZSWOMNa21A7gER0IlBZsB3WOUcp8FZVVkDiTTqHft68fjadzkuprcIRz31zvLuV3LDh7JzEDmVJzxxvxxfoovC3H/raKHdAGwdnVm+rtzyTt8RzB2bQldjBpPPAlq33R9rCD7Q+Cc77gPKivd42ARrHueewF2T5/QjS6NfbTZdiv5b7zfZ928IyL+DTHMQE21tdp7NMBAzGNbZs1YDRY54TZqjZmuF9oM0c2sT8lTyAU59nMg0Ti6Plj0HQ3QQamxNesZdMBUW6aRlPWgem4w2sr+jtu3fuC7Fw4ae6PafDZunu+qWUbngWautay53Ft06BlWnhuv+BcwzPAgOeS2C7xtjHrUs8R+X6y0J+mwSKbwaDb5Hkj67hqHxk/nne+9GdnQ7VpieBctna2cHs1VO75xJM1GijVOsWinWfp7Q6sylJg0GxEDr3+B0dNaxWPWAuiTNRIiATkeBTfshxU56Zx1qWvWR2j+gCbXj89n3d95ivyb0+/Kc++eqPTf58+dDUUOlMiod+ROuG5jOCs8xOryHrZj2AuKTibCGhzHE0jnRZmE2HZL6tLqZ0WeO0oq1S0tBGPUwKqitwZ5YwjelNzN+/351A+si6XVZzW495yc0Pbcq5f7J/D+fDSupz1+fi/gTnWZjCHs6YcV/H+cPrPlaGO82vEsi+wx++Vk4r4l8TOve3K5oR1Txj3r+PhS/JHJ1blqT/9L52uL+Oq70ee++vC9VDvcyc8t0ZwjhxCxhn0qG+wJvM+auSyzrW8HqXWts5s61xPzwUZO9jVOHTOdnW8a4qcWMhNDEtnGJqIL+PA1rSdDyZzXRpHlBqq0m+cRk5wFcZDZ5YToH0DN3LGuTK4faMBKHoME70cCAP+/pMXnJd/53+WPz51mXqY03f/77+3Wrgu+sJzI+mzPZvKCL/eXG9+tIX/PssOC4Xd1dBWU1HYRB3n2XAFBFuvnOb8vtDslTlvsGMcAe05oNLOswVPbE+EeDv3p0vXHTgHTZki51lg6/p2r9rHGdEa6esZ4bOfZvvPLr3Tmnr4N+//o/eEdjt3/uY4Gt7bWt9qRHKd/eNnT1wvXA994bkVgvNI/WHSJ6rIGzhTgn6lv/9z/aBblu4PH33CRgFof+b6uAFzOOvgsvUcZ4/Orbap/X0QgbgrmG4jnmYj2Gb4dbnrq2v5Hx753zrRJyZ1NEpLvW9ZDvkRzCUFZxMBHaex3ghr9E0XuexFKN+8Lof0mV/bv1jYjiKlz6faUeN3uC5n/PL5ZzDHWg3mcBZRESLjOFF67T/9i3drbWMGtVdV7IDWCM4jtT/WxvWz8DRnj2cJzg/GDuLAMWyu0dnoGW1Gh9qf4ye/Josv/3Vj9/ag+34S31Xt67U5OfXV75go1nv31BXV7PspPcFZB3z2kjmcrV2d2MomC+T5PJs5mhJGfL9rqp2rMZW2s/nTNrOW0QmIZptADB4iOFe1mYNzOF7af0TzWxsmanNviD/A1F1DXUu9P3bOH5MvnLokZ7/eHrt7EvVt2Dn//h9+6vXU5Z8Fmuynh13LOL8Pfc75vk/dzgnPrRec63gG0IhlFyQSLLW/1uyFdu5ljWq2zwd2Kj7fnjd9fWqQq2Y+DLMPRuJx/KwS2gGDBGffvtFz+Z/9crTlPYKz1yR19e27t34kWz91NHS4jeBMqqtzrO04WWkYjWHjGz52pHKu4OwbDPo+HsWX73isrfxt/C1+4yW571+tFHaGlemUmt72f/jtwZ1kVnn2f/4NufDn3yp8/Src+umei0TDqqB6VtNkG9E2EqxNtG8y37E5rpnL2M1T7F+LE6L9dVnpqy/JfSZiOBSczXWnBWeznfQLsYGw7J0v2D8pj16/zr/s0nHbiOFkTmufuRHbr4XzUF/u+5wcy9/XXFdK8NYI7KLnzxPX43OY3yODW0podtv/TxXuNbcvS+++8vi+vrIiGp0zUaPoUSvk6mCOWLD1Ri+6suWLxaGDS9Pr2OhkNR5tOk73OesY6gxTMfuOcZJHDvrI4eaMSJuyx4rQidCtx7dl1+1849R/b7eJUpoa4VpTgCbzapoI6kgIWHNR1NE12CguW7Y7Vy+YyO9YlM5g5FiNc/kHv/144bZ7Nuvd5dJ8HnniDfnv/vkX5Zd+/fh4bUl18t/ciFLP6aA/l5JanWGeMyljIKAKtEvqMNN6cjNKxRqJBk6YdUKvjT5OOd5030FOpz6hwG5/MLLhFs5fz3AoeQ6oPlsvHLiY5TwLyhMIxUOcZy4SPEu0HhSt0VdGn1G59/d8+tnS99k46+N333rXprY9sCqHFov+6TOA/Q0fefLNiV+PCs/furwil/f//OT6xJH7w8RpYvotL9102C8l2/n9xWj9YXTMQNi2faT27Xp+nX/Z9aGmPCaTSH9ZjNgd9XlxNHPf5+RY/jU0/f5f//aXJn7vFqnbmgnHf5l2OnLc6/ph6S/NNr0NW8+1LTsQCdZROlRtY+02mn0imfrArPT/BcK2E6bt+f05pW2/kswp7R/CiN1D25kwvfbuEgOki/AcvE15O+Cxo/9Zvv3cFybX9ngDK7tpj2cJzupk9tqlKBvCsLawK+3P+d0/34m2Z3BdyX4+Hec+2tf/9pFX5b//tSdEo1jH4nOM7GMbqKD2bNTGenagHfipdvXgrI6h/fqisZv8wBzz/ZBjlL3G8JyeeO7K7/t29w2xmQfZ/oHtnbKDg3N49r4K+PoXPcP0P3OkjuPKPNLynPziv3hStsx9hTrn+ZHS9fRv3t8c6Vmg2X66+bYnzavM5yNL1+TKn/xW0qe5vq1tyxGfAYLMglGmJV0X9+VDBowZEVgzIZoAFR28mojCsUBsjuH55lIMs22E0MbQ8sTHS+0fl7UF6xGc/aeHjr6f+gjnjM65P/rFMwIytjdGSyQy677OOWmOo87LjL9gFF3GMcsaTm3b/mP/xwvyh898t/MjUstEON//e6vmerXO/MWlbw802DIjcKOIXI16VsG1L0J3KYmSNSLsrc048jcRl3WuYCv6mvsuHfEcG1GJwOsbA/3zJZcUnG+ty+F0dHMgLHvGT7DeK8+RaI5mjfy+dkfuDph72YnR/SJzJEIHqbS9cyuHyufX+aLzRe44GluPL9lCuc/cvf+/j71OhHNOVGXZCOcDJ/6LvLXxgUw8wjlyrt95+UHRKGXnlM5Kv2kE4Whe4zCFZiI4Owe2RnX5Buvayzpi8oKsZ0Q4m31M5LQ1ZhNxWeeFsWn4TFuRjniOjMg4eiM2XtMGaRihnGmEBsa5jt5MIrs1CuyORqq97K2bYESXRnN9/iQRznkjn8tENv3Lz35bdDT3j3/6M7n2V+/J/Q+dlh0Lz4zPAeaJALGD5oBLTT0ghbbuZ4RUJ1YnYoJLx6qRq6aexAMKQ4dPdkSxFbF1/rYkyjhJ860ONZcyz9pw6fmXnf2YHkXf77xrhfOsBltWnaN6j+i98tSfrrXGhtToyczowkig0ojGJAOSH51jBzFMMsJZbQyX9WOiEc419IfaH8WRv6n3JhNI7ITxt0siBEbtD03/FvRnieCs/ZqZo1n7syhjSd7cy3Ff3icy24FX9jgDIhQbdPJ87Xf+WSf6xEF1VOvmmQParmfVU1tH1U1jnt8PrMaRx64f0fbdiMwHoii9QfM25wjOolHRJmJa02Ivx1FsWe4hJ0bnDm7JSKXdZORUGTvAZf+aeIRzDe2PiyCKB2FGWRaascc921szJelAUhPV5Aa0uLYoeWbItMddNiTTTkXtTbodakEqf1f2J469QoRz7LtJ+TEy1rvn3x//5Kfy+PHXZPvcomyZOzMG0dlmclxwWSA0DXQ6ijk1aDPPV5llv/rHMt/nCM6x7R2VI+8c6fVZ59QpdPwsNcncy3mCc9bcz970PfGgzbStHz0/ZAjO6WcNN9B1nFHOmllI75Pf++NlWXz5rdbY3XnPoZNcrxHOozwLNNlPT5KT820WWbpsaK2PcHZ2d+VnAA0Syelzr2qGw0h01uPnDFb1bRDbR3p2gevbryaZT1w/ml6aZ5A+v5+zIZxNMdyWSB93Ep8RnLOeIjq4brbmcM4Sl7PWec5GdTRpVLSZnzlxahpjps85OeRYNTjs0kbVJD5v3/O0rH3/Bx2828MiF5nD2QnNLs3K8JTaOndznmB5xzi11zMFzf5I3f1OnHWibBTlfFcjhAdG2FqBVyOrfbF2XQXa1DpNf53Mf+w97ASCrROmR49wvu9Iz4jWhy86FlkR2rYcVnhPuCiPw176bStI50QZB+X3Be9h5w9TdvcNEIhSd9tzi9h5qz1uGQ+IapAxh3NY9/xPRedwdg/abt+JC85RymtnINoI51Asdo6qtUgsNlHAgeDqGXxGqFWBVlN62jkjfbHYOtOzo6J6zhnuIsKiKOe7GpE1ZDSlMyCtkzw9p2QFwdkZ7WZZYP9ge2cIj2fZvfkq3d3ezLLI3I2+0Jwu1XPne7L900/J1j3P1uoA00jSWNTV+Ttv3k7mcDbzeaqY7G1j3vc7gUxEqrHnohR2LopD51Mz7/vF3sDGMtv024F98/1m2nrWPrwxLMI4w/GW5TwLBjYGjq0851l0/qrRGpnX5NnKQ77Xe0LvDb1HWv1Kza9qHKOL9p6LnZXmeWB8V6ECdhFHjhOaXUkmKjiP3B/q3M15zho7Z7LLlBFGDff3iSP1h7nOpl2i/bfpy3Uw19VknmnXh7pluq/W8qw5Z5NzGk147mZX1u70iTp3c172ASsUqzjRL+KGkcJaVzQ7hBGHXYR0FOW8bVGzaOjcmratdPUqWOYKzrfNlAQrkSjjhIRg3+iDaVOivkdX2WwVSfpuK8YMKEPWQWtcV8QOcEKzO+3EBeeR2x+1OSdojzub3QQxqP2fRDW5uqrRSObZYEjb0aX2hzmci/X16edfV+/cYM/tC6dk275ztdrdvu2rNqgvErupW8wzqjf9i79P/N7Y78lgHhV+lw68KAd1KgIdmGkGCiVzGsf7RZHHeo7w3MPtztBmthkt+uz0WMTOsJm1b4jmWTbX7r2/m7bRjX2Y8exg7PJovb7Xup2VPtv0Q8lzRXL9w69z8LbnZNvcM/Lx/SfMoGB3z7AsSKAFzwIFS9r4ZkWeT5zQ7ArXfcF52DNAOG1O3yDZyPfnfG3ZWRFDgdnZJPG2RqxWP11+dLPaC+YcKjibZ5YnxAyO7fMFps81Hr+bs1+qLhGcXQ3q+PJj80/LlvmzYzNSBneGo3am5fY3BkjaUIgeLAPnXZ/jzBojzkjSazLHmlHBWef91kjfrr8GCc5podld63DBOU987ImZ09mkeU6imfs7bStYm3Ta8fzPuk4F2jsm1babG1kjlu9mRjlHgnNqzuQ+8VSjrs1xM0RbJ9hqSnA9h/ucFlQLrXcCuBWZXZld5HZelHMoOFt+6xd7sSO2rOCs8zIbgz9iln9+jcK20csuKny/DiKIzx2V5dqmN0913u9u1yM4uxrUvxwmOOc+aH/n9cmn1DZiacpoiyMtkhQ6aQdQYnh5Di49Vsog9NPd9B/DOuht9LSb79I5xN8yqbbdXJTGUdU32jFlXDqHV+BILyAYxw76aP5qE5FtBXN1mpk6589l46UlTTikyjImEbo7zvX+etLEmkGO5kFCs1+22x98KL/3JxdqjbxYyJwj00aa2jTZftSpe+8cWBqpsWHTaeucaRp9ts+ls7ttUm27SIf+DDihjZl2YlmbUgWDJHIi3zlmBYSBtqZxSvU7rsLzJvZofF7jyEquN3tOvRGjNfrs4pBNnq2v0TcmuuJPLojeG21/9YlBTkAyqdrtVDruGWBc1zJMcE4Lza4ckxacbXs+Sn+Y1Q/Y49m+LIlm7u87auoP4/5My2IjAnRONtOPRX2oyyRy1w3wSvVXYV+d6uOdM2iIaNR/fVlsRl/X/T4xmtM5Ggyk/UH2ywrWNuuEm/9Z19n+4IyJSrbitGmj86KcMwRnFTJM+xft4yKn3Vyd6fKEbYwtv7bx7mXFlXYKzmmh2ZW5DYLz6O1Pqq42ao9r+/WgneMxaiPCCGf3fNAvRKfbii61PwjOgwXnvOdfV+/c8qmzr5t5esczn7P1eTrR100d4Oxmawf77WuWbZjY4fY41gY39rva5edtlonQjnS2bg2C80D7tV9w9m1u/70R2nt2ihxd79p68+zgBi552ZiM3aCR1b3rZjqgMOtRwsmI4ZppIxbBk+9CJsXWq92t8zZ/8fRl0Wh4XuUJhP10cg/6AxfG/SxQvtTN7NHvu058oGmh2ZWoy4Jz8WcAzYRkxWDnv+vpQNo4W0lkY1y9IM4/F/bf9pkjFpjNM4gnLkd+Oh3wGu6nzwJW8NYo69j3pnNBa2aoR6M5n4P90uca/Xmiv0yjHxPB2dWgji81td140rEU6xSrdKSV9olGEzuDKTlGASdgtK+m7VLR2YzI0xSNMyo4a1T8NLyyBOc8odldbzXB2YnNVtg9rKmkVUy+mBPdu7Ru0mnrPMdmHuMoDbeZ99gXeKOIZxWE3ZzI1giwaaHPRtG4zjBw4qn7bJYaceyl846/0/OYkdbRHNLRZxVtgz/dJp4rOTE4rEAdCdnuWC5S2xetTRR3TmpqP6LZHCMSgVX81TIvrctlbz7ouOx6fN1ez+fem3JuyuEUk/syzu8L2TEz7/zm2KLH7hfBgzJ414ng7GpQ/zJPcB72oN2GCGdrXFkDMjEQo9GF3gjE0AHkG2BZDi41EG2klx/lkHmMJ58waXp0Xkkzb5tGRThB13ece0aqm4MyMAxdhLSe10RvuagxNZ4vyHoQlR2W35TLtBUu6suP8o4E6yBNuL9/s++771zvrz91rskSnIsKzelyuMiL8aXZ1rmbb4txemmERKbDKrJDFxNnj4mm0PnoooiFbX50sLMTe1nOL2srGkE5+t44ovrswDzbt4CtWUhwnlC0xkCHXf81++mz9V7oxsvOyWqcSBq14iJr8sSnMV1UnuCcJzS7YrRScI4F1sRpktmXpURbv281wq6Zb0yFXztFQ2Y/Vkd/aPrNKN21vte+LUtYNn1mck3p/jSOaDbHiBxQ6njSvvDJJ2TT9dOZ191cv9jtPtGJza5tteLxoWiAkasX8bJ33aTTNvW6d91EOTvxRHwhORIOMqOUzXb2fGYfbRddpHR8IhGbYjt7Dmf9bqUXCcym/7DbmQjunhUnDmm0tX+8Bt9n2QF5QrMrVmsF51LtT0vs8UzB2ZbNPpfntDuuLfEzKrS8/UFwzhachz3/unrnL9/eeF/2PPaC7Fw4WfvUNnYw5nXRwYzGBk7Z266tNNG/kWiqcxTroEh7z7ro3mhwTmxP6kBIzSDjjpv+/kXRcw8cqBkfK7FDQ5E4WZ/4fu06Hczqypecw/Unbhu9Bm2X3WBWuzRieWz/JxHROgVLbDuq+BxFMLvz5C/7B5umyzvss9rdGu2uvn29H3hVJdCOZ4GqpR/3flm+zjyh2ZWlW4JztWcA6w+z+zrB+bLXB9v3+n3K1nB9d7ytfU5Y1+l7nC8xCmbRLCfJ1HyJwO0GyOrzyroOXnPH1GV8XP/ZIvLP5fr3/G0n9x7B2dWgji8/89mX5J49p6c6wtk9ULrReGGHHRoW4XdqbEQj7JxRoY5LnStKBWeTCiuJbHEGU2K05Bs5/efpxrYaDa9R8dPw8gXnYUKzu95ygrOKotG8yylh1AnJKorG8wLHAmW0X5QC2/8+jPq9JPe5NNuSI9rGx7wksXjqrcsyGu6LhNRgjmIj4CbpreP9Mta7a7ZG9R0zZ7VeQyiKJ+L0fp0XemlN9qfFYFPOJOLbRjfbaO84AjxDtB/p/CpAS5IqO2FmRXyde1u/jyOtjRCt2yeR1zEbjzOCs6tB/cu04Fz0QbvNgrMZaejS50Tzsd0NRhY64y1tdEZRwv78lY9G8zNnzOFsRzRGoxm9uZzV+d3n1HcRzM54jYxRF60Vj5h04nMkPK8/qVEXGZFl7nip8waO9/ToTN8AnsD7bjvX++tO3Wt8R3NVoTldpvrTbEcOKrW/nDAcOfzNgMCUI8zaWp5T62Yyl7N+1+eYipxFfkYb3c443DRDzoHVyOmmtp+YgYdxhJtzfLloWPfZLK2taRxXXkR0HKUcpWnuS9eXVcbguGnbsf5ojbL2amfSZ6duVmu761zbdk5Ytf9NxEmUUjvY3P2Gwcp6PqQF52FCsztrWwXn4v1h0i8m/ZIb/GS/cwOrjFPFS1PtBGqzn2bWSPVLRfpDd05ru9rIAJ13LXDceP2W6RdN/+jK7S+TiGsbqWizj8QZSdIOIe+4YR/qH7P+993sE5PIMvd87+qADiRy6bLPOFHXfWlEgyiKzJvLWb9ORzNJHK2WiMZxf2PaX+1TEgE7PoX3xrTtPSumeKujt0lUn/ZBYqL83DQQy5IrmvcfqPY1vh0wTGh2J2+z4Fy8/Zm8Pe7qvrZXLsJZ2zw71Y5tC61Te8DAG9OWdKP9QXAOBeeiz7+u3mUtX7r4puycOyb37K5vahszrY1mctD02AOicMMI3VVZGhLZ69uWZr7mtG2r9rimoU6vH/JZ2+aBg1Dd/mrP6zQ3LktFvN61xda+9qNa/fd++f33fc8E7rjGplS7MpoCyD0r6DLeJm3TF/us0e36u2u0O6/RCLTlWWC0qxjf3r6fc5jQ7ErRBcF5pGeASBB2wSex4Kzi8tULsvakjSh2/boVgcUMQnX9vslG+F7Sz2tk9aY+K0Q2gJ3KJxp8ptuZ9cMGoFn7IT6v+gfVp/fyoLmk63/WcNdYdong7GpQx5efP/lNuffTz0yt4ByPuosfHlMdd+RczBaJI7E5Y1/jpFRnp28sqNNTyo/E842Utr+/d+6MfOKRr3T8rrfFV8G5qNDsLriQ4Hxk3aRkNk6rTEHZia09sdHOnoD5sBU0TQS0J2Kq0GzmYPbFTidoHlnLEK3dOZJlIp4m63yjIXivUda+AJwhLKvYfdmI4p4Q7aKuo/TTdh7qKJV1FAVpnXlRqt14XRQeivDIAAAgAElEQVSN/PAlk+Y7Tn+t35vI6LSg64nyPpMazm85RFHpwbGj3yaVxlwF7kCcd7+Lt0RwdjWof+kE57IP2u0WnJ2xZg1Mved9Yy8xuNIOLrefv3zQpMc2DqdAtHbHdum07T7GURWlsu4756MPmohoc/5HnzDRzCZirM9x7yKmo1SicT3VehuN/NT0PZEYHl/Pkyp++/NwvmUcZS5i28y9qQb0k/71Nfe+m871/jozrjXqXK5LaPbLOHKa7QPLsmTmbo6iILLmQTNp7K7Lij9Hs3HgJEKvTacdOZBM9EVOVIU6oUzqbd02iqROzVM3PGoh7SSz5Rh9DueUDes5qcYSreEdf5h92rX02ck9mqRaP3MzWWvneu2PuEk42N802aOed05wLio0u7O2V3B2bbzrs3L6Q+2TXPrqlGAc9zFOTDEj//3juGNX7w+1j3V9pp0HOqv/S9uurj/8iJnfOU69p32miYxOptaw16CRC0nKO3e+8Pocr/EvO9Un3lQxOaqPKcHY1QG7dPXZDiiy61zEkkunbdeq0OxEEiv8ekfSgSdOtHZRz1Hq6+Ftg2unkzZC03cHQkQU+ead0QjPRtiORJ2+MoUbj+WT2gFFhWZXgHYLzq4euTYiqedhvZugPZ4acGIcz1efEJ0H0j4/hBFLiWP8gp2fUTNAqEjt2s+OtD8IzlZwLvv86+pd3lKnvXvoc1+THfPHZeve56fWx5vYYq69nb2l/r4a1a7R7dMw3WHePd3Memc7JAPN9LzD+/ukn2+mnJM9i/pJiwrNrqStF5xdJsAo/XWVZwBn4yf9dmT/u+jkwIenfjZP9NXnAlEB2tkrutwla1GUc5KWO5lew/jTI4E6tGXsMezgtLS9M8wO8s8/+fcIzq4GdXx59XvvyM75xek2RgaOHFuWgwPmzcgccWciTjaiuZ9842ZZlnobJgJ6ao2guRNy7tXvdvyut8W//Oam/P0/lJvbpJDgrKLp0np/+mZPgAzEXY3w9b9Lf9bvNPJWo3l9Edjfp8B7nYfYj5YOyjBs/yj1driPRhv3l0kjlsPtnMDdExPNbFJlr8lhvU73F5x/Tc5eS9KKZx/LHVPTjq/Z1NnRMUY/vz22iuXB76IpznOvLSlPVnkRnPObjL95/0N5a6P8nPCtEpyv5qed7hNlA8eSjULQKKosY9EZr2svX4hTZwfbZUYeP2hHRBZIk9PT6KygPHnGpRWXdYRmnCo0az+N5vajs3Pe9wqULbjOrHNVWNcp53p+lRnbN3/+xg/kxz/92diOP0qa7YNqWy0WiQJQmy4lEmbZgOrs12joAdEasR1nohF8W6//fTj4MBEx4mNotpxh9uEBW/Z0pMOkozWSa+i/bv2um+mzU7e5SXObWpf6GESjmwjn1AY1fdT+UPvFsq/WCM6V+8OPyNqTdr6xQu1/uv9Lf9Y+Qh093tyog46b31e7aSK0/3tQ1vQ87i/oh3RwWDLNxaBz6Xfa/64F++f1v+Nb37U+caVnBxUVqhtR1oh42/Rn/eLmho0m9gaaxNun3mj9z365TGdRylWX/aDvfBtyZkhUtH98k8LVX9HQe302LvtqleBcuf2ZrD3utxfq7NZ2RtsvnX/R/85/H9rS3Wt/Zl1w1r6+yvNv0fp5+Y23ZdfComzZc2q6/bwlBkYOs2e79P3WudPm99Wodl41EWjRs0BNV1T7YarYCK0XnKPIX79/Td47m3/YM4Dtq7X/TvvW8p8vkv49c5tcGyDytw2wD4xgPdC/mJw7udZ2rUNwrr36Tu6A2z51lBFwM2qslDWs7vnEkzM9gq6o4JwlOrJusCg7zXwQnOvv39ojOLfLOGur0diGcnXNuV5/rWnHEetPs50thJa1b9i+PMeups9uR02otxTtEJzpD9vQ1xUtA31ivXVwVo/WHsGZ9qdo3W/DdrMuODfRXmiGoUNHvy7b5xZly/xzCM9T4O/V6Q01ev2Rx18R/X15QaDtBLogOLehT6QMoQ2H4Nz2ml2ifH/wpWX55U9Nb1ptnIjlnYhZzDRd4v0PnS5xZ03fpgjOsysajyKIIzjX3xYgOIdGGUbqcB441+uvh1WPOHKa7SlwGmXZWV1Z19302VXv2Pbvh+A8vA+gnwwZ0Se2v153oYQIzmG9op0pxgPBubnarRmGPr7/hGybU3/vOYTnjj5DfHTulPzK3i+LRq/zgkBXCCA4F+sTsR1CTgjOXanhBcqpnZaOlOqKo4ty1iMgl+W4de6kLL6wWuCOmt5NEJwRnKsIzwjO9bcJCM6hUYaROpwHzvX66+GoRxwlzXZZG4btR7cdpyJ99qg3bUv3R3Ae3gfQT4aM6BNbWpk7ViwE57Be0c4U44Hg3GxF//FPfipfPH1Zds4fEx00iE08uk3cFMMtc8+ZKPXHj78m+jvygkCXCCA4F+sTsR1CTgjOXarlQ8qqHdeOPU+RVrujo92aMna2fuqovHvrR0Pupun+GsEZwRnBuR11HME5NMowUofzwLnejrqbVQrSbLff8UX67Kw7tz3rEJyH9wH0kyEj+sT21N8ulwTBOaxXtDPFeCA4T6bWv73xvslYuH3+pOggwqb8iJynip1/TrYvnJJf/c2TogN0eUGgiwQQnIv1idgOIScE5y7W9gFlPvXV74gaHhgDVYyB6d9n69xpM1fIgFtoJr5CcEZwRnBuR1VHcA6NMozU4Txwrrej7uaVgjTb7bQlSZ+dd8e2az2C8/A+gH4yZESf2K463NXSIDiH9Yp2phgPBOfJ1nj1/e6cOyb37jndWf/vwZ7I3d5qX/kXFq/L0uJy3/ou+bnvnTtjotGfOvv6ZG8Uzg6BEQkgOBfrE7EdQk4IziNWvLbtTpRzOx197TCMzsm23Udl84cftO22bbw8CM4IzgjOjVe7zBMiOIdGGUbqcB441zOrUutWkma7HfYo6bNbVzUGFgjBeXgfQD8ZMqJPHFil+LIgAQTnsF7RzhTjgeBcsIKNcTP17e157AXZPn+iM5kuFw4si/s7eP623Di/Gn/W9dv2LcvSTZEb57spOKvtvXPhpHzika+IRqPzgkDXCSA4F+sTsR1CTgjOXa/5GeV/6eKbpoNrh8jZDocbLF6ULXtOyaGjX8+4Y2ZvFYIzgjOCczvqPYJzaJRhpA7ngXO9HXW3aClIsz05O5j02UXv0vZsh+A8vA+gnwwZ0Se2p/52uSQIzmG9op0pxgPBuT21/tWVNdm1sCia0bDdvs9lWerdlhs3N2SltyErN0Xuxu9vy43edVnYtyorcluWDkzOhq7K8J49p03UufrkeUFgWgggOBfrE7EdQk4IztPSAqSuQ+eI2DL3XMuNje4ZEFUNj8nvR3SzX0UQnBGcEZz9GjG59wjOoVGGkTqcB871ydXXqmcmzXaz9i7ps6veqZPfD8F5eB9APxkyok+cfL2dhhIgOIf1inamGA8E53bVfrW3H3n8Fdkxf1y2zHfDF7xgIpzDSGZdd1dUiFZhOvlrswC9de/zhvtnPvsSGSXbVS0oTQ0EEJyL9YnYDiEnBOcaKl8bD3H1e+/IzvlFBOd9zTr5Ji8sZ1/vzr3PyPGXrrbxVp1ImRCcEZwRnCdS9fpOiuAcGmUYqcN54Fzvq0adWUGa7WwbrS7bkfTZnakKuQVFcB7eB9BPhozoE3OrE1+UIIDgHNYr2pliPBCcS1SyBje9/Mbb8vH9J+Sjc6da6Q+OBWUVlYM/jWpO0mm7tNsLixtyQzbkYEt9u5pRSKPLlTsvCEwjAQTnYn0itkPICcF5GluD6JpUYFShsS5HFscZr6NwXHy3L5yWx77w6hTf6eUvDcEZwRnBuXy9GcceCM6hUYaROpwHzvVx1MRmj0ma7frtSdJnN3sPj+tsCM7D+wD6yZARfeK4auNsHRfBOaxXtDPFeCA4t7ed+PFPfiqPH39Nts8tima+GZevse7jWjE6FJfNut5q665Bo8iV7+/9yQXR6HJeEJhWAgjOxfpEbIeQE4LztLYI0XWp0KiCY92GAMer31k4Dqb3zp2RX//XZ0UNTl4JAQRnBGcE56Q+TPIdgnNolGGkDueBc32SNba+c5Nmux47kvTZ9d2TbTgSgvPwPoB+MmREn9iGmtv9MiA4h/WKdqYYDwTn9td9l11o+4JGO59rh19YI5a9VNnJexWal2VB524+cN1ENds02suy0LLoZo0e1yhy5csLAtNOAMG5WJ+I7RByQnCe8pZBhUYVHFV4HIegyTHrcRiOg+OW+bPyP37mOKPtMuo4gjOCM4JzRsWYwCoE59Aow0gdzgPn+gQq6hhP6RxhOxaeEU0JPQ57aBqPSfrsMd6UEzw0gvPwPoB+MmREnzjBCjtFp0ZwDusV7UwxHgjO3WkEnjr7uuycPyb37mlHMFKcLvuACszJX2yzR4Jz29Jom2jx3U+b6HGCerpz/1PS0QggOBfrE7EdQk4IzqPVu07srVEkOvqqS6lUYkOjZSPZulIuFZt/Zd9xeXvj/U7co00XEsEZwRnBuelal30+BOfQKMNIHc4D53p2Xer6WtJsFx/ASPrsrt/t+eVHcB7eB9BPhozoE/PrE98UJ4DgHNYr2pliPBCci9exNmypvsE9j70gOxdOTnCQ57Is9TZkJedvaXHZDj5d3JC7onM6F7ePx+urPScaJX7/Q6fxsbbhZqYMjRJAcC7WJ2I7hJwQnButppM7mYrO/+LhJdmxb4nokSkXsXVggUY2r33/B5O74Vp+ZgRnBGcE53ZUUgTn0CjDSB3OA+d6O+ruOEpBmu3BTjXSZ4/jrmvXMRGch/cB9JMhI/rEdtXhrpYGwTmsV7QzxXggOHezxr908U3ZOXdM7tn97AR8w8uysLgqB6O/pZsiN3rX488HI4HZzuUssrI42DYer8hsz22iwncfFY0S5wWBWSSA4FysT8R2CDkhOM9Qa6EpP/7Vv/0z2bn3mQkYFpM3FJowRiZ9Dh1QoAML1GnLK58AgjOCM4Jzfv1o8hsE59Aow0gdzgPnepM1dDLnIs12aDOTPnsy9+EkzorgPLwPoJ8MGdEnTqKmTt85EZzDekU7U4wHgnN324LNH34gD33ua7Jj/rhs3ft8w/7hVVm5aaOXD/ZEbpxfloXzG7JyPopu3rcsVojekLs3r09s/ma1vzUaXKPClRcvCMwqAQTnYn0itkPICcF5BluM4y9dlV0LJyZgWIQOtEmLs9N0fmMM7X3GDChgLpHhlRrBGcEZwXl4PWliCwTn0CjDSB3OA+d6EzWzHecgzfaLQvrsdtyLTZUCwXl4H0A/GTKiT2yqdk73eRCcw3pFO1OMB4Jz99uFy2+8LbsWFmXLnlONic42enlDdH5mJzhv81Nom/f6fSQ8x0J0c/7krXOnZfunnxKNBucFgVkngOBcrE/Edgg5ITjPaMuxfOWvZceep8w8FCpWTpP4OlvXcs4Yh5oSRwcS8CpGAMEZwRnBuVhdGfdWCM6hUYaROpwHzvVx18p2HX9W02yTPrtd92FTpUFwHt4H0E+GjOgTm6qd030eBOewXtHOFOOB4Dwd7YLa2oeOfl22zy3KlvnnxusbPrAqK5Kkyo4FZxWXexsmtbZ+r1HPxq9rxGfd3kU/j1d01mhvjfp+5PFXyBo5Hbc3V1EDAQTnYn0itkPICcG5hsrX1UNoJKzOQ6Ejtz46pyPazo3XuJjyuZObFrp/efcp2b7naWMckuKlXC1EcEZwRnAuV2fGtTWCc2iUYaQO54FzfVy1sd3HnZU026TPbvd9OO7SITgP7wPoJ0NG9InjrpWzcXwE57Be0c4U44HgPF3tg9raH99/QrbN6RSM4/YN2+jlu764HInRd3urgV96wY9+HqNPWX3iGpSlUd+8IACBhACCc7E+Edsh5ITgnNShmX2nI9oeP/6abNt9VLbNnZB79pwOOvimhVTOlz9qb8vcc7L10ydk66eOyu9+/ry8e+tHM3vfjnLhCM4IzgjOo9Sg+vZFcA6NMozU4TxwrtdX/7p4pGlOs0367C7ekfWWGcF5eB9APxkyok+stw7O6tEQnMN6RTtTjAeC8/S1GBqU9MXTl2Xn/DHRbDvj9M0uHFjtm5954UAzkcz+dWlUt0Z3q0+c6Qmn757mikYngOBcrE/Edgg5ITiPXvem5ggaJXvu1e/KZz77kvzSr31Jtqv4vPvZ8adVGeMoNd+Q6OJ7Telyrw4A0N/iE0/Kr/7mSVn6szcQmkesdQjOCM4IziNWopp2R3AOjTKM1OE8cK7XVPk6fJhpS7NN+uwO34w1Fx3BeXgfQD8ZMqJPrLkSzujhEJzDekU7U4wHgvP0Nhhvb7wv9z90WrbPn5TpnYLxnJli8r7f+LJodDcvCEAgmwCCc7E+Edsh5ITgnF2fZn6tOvNe/sZfykOf+5poB/wL93/B/OnIr53z/I2bwS/+sy8a3ts+dVT2PPaCGQhA2uz6qiWCM4IzgnN99WmUIyE4h0YZRupwHjjXR6lx07Vv19Nskz57uu7HOq4GwXl4H0A/GTKiT6yj5nEMBOewXtHOFOOB4Dz9bcepr35Hds4ds0EwUxQopIM9NYpbp5jkBQEIDCaA4FysT8R2CDkhOA+uV3ybIqDOvavfe4e/MTMglUvqxqv5I4IzgjOCc82VquLhEJxDowwjdTgPnOsVK9sU79bFNNukz57iG3KES0NwHt4H0E+GjOgTR6hw7BoTQHAO6xXtTDEeCM5xFZrqNxr4okEw2+dPiGZg7GLmSFdmHey5c+Gkid7WKG5eEIDAcAIIzsX6RGyHkBOC8/C6xRYQgMCUEUBwRnBGcG5HpUZwDo0yjNThPHCut6Putq0UXUmzTfrstt057SoPgvPwPoB+MmREn9iuOtzV0iA4h/WKdqYYDwTnrtb4auV+dWVNdi0syta5050UnXWqQo3Wfunim9UAsBcEZpQAgnOxPhHbIeSE4DyjDQaXDYFZJoDgjOCM4NyOFgDBOTTKMFKH88C53o6629ZStDXNNumz23rHtKtcCM7D+wD6yZARfWK76nBXS4PgHNYr2pliPBCcu1rjq5dbB3g+8vgrsmP+uGyZf64TwrNGZWt5NUqbaQqr//bsObsEEJyL9YnYDiEnBOfZbTO4cgjMLAEEZwRnBOd2VH8E59Aow0gdzgPnejvqbttL0aY026TPbvvd0p7yITgP7wPoJ0NG9Intqb9dLgmCc1ivaGeK8UBw7nKtH63sl994Wz6+/4R8dO5Uq0VnjcbWqGwtLy8IQKAaAQTnYn0itkPICcG5Wn1jLwhAoMMEEJwRnBGc21GBEZxDowwjdTgPnOvtqLtdKMWk02yTPrsLd0m7yojgPLwPoJ8MGdEntqsOd7U0CM5hvaKdKcYDwbmrNb6ecv/4Jz+Vx4+/JtvnFkVtXjdPchuWGn29c37RRGPr8wAvCECgOgEE52J9IrZDyAnBuXqdY08IQKCjBBCcEZwRnNtReRGcQ6MMI3U4D5zr7ai7XSpF02m2SZ/dpbujXWVFcB7eB9BPhozoE9tVh7taGgTnsF7RzhTjgeDc1Rpfb7mdnb19QaOdz01ceNaoa42+vvq9d+q9UI4GgRklgOBcrE/Edgg5ITjPaIPBZUNglgkgOCM4Izi3owVAcA6NMozU4Txwrrej7naxFE2k2SZ9dhfvjPaUGcF5eB9APxkyok9sT/3tckkQnMN6RTtTjAeCc5drff1lf+rs67Jz/pjcu+f0RERnk1loz9Mm6lqjr3lBAAL1EEBwLtYnYjuEnBCc66l/HAUCEOgQAQRnBGcE53ZUWATn0CjDSB3OA+d6O+puV0sxrjTbpM/u6h3RrnIjOA/vA+gnQ0b0ie2qw10tDYJzWK9oZ4rxQHDuao0fX7nf3nhf9jz2guxcOCma8aeZ9NrnRKOr73/otKx9/wfjuziODIEZJYDgXKxPxHYIOSE4z2iDwWVDYJYJIDgjOCM4t6MFQHAOjTKM1OE8cK63o+52vRQu/d+OhWdGcoiRPrvrd0K7yo/gPLwPoJ8MGdEntqsOd7U0CM5hvaKdKcYDwbmrNX785X7p4puyc+6Y3LP72bGKzhpNvX3P06LR1bwgAIHxEEBwLtYnYjuEnBCcx1MfOSoEINBiAgjOCM4Izu2ooAjOoVGGkTqcB871dtTdaSnFKGm2SZ89LXdBe64DwXl4H0A/GTKiT2xP/e1ySRCcw3pFO1OMB4Jzl2v9+Mu++cMP5KHPfU12zB+XrXufr1V41gGfGkWt0dTv3vrR+C+GM0BghgkgOBfrE7EdQk4IzjPcaHDpEJhVAgjOCM4Izu2o/QjOoVGGkTqcB871dtTdaSpF2TTbpM+epl+/XdeC4Dy8D6CfDBnRJ7arDne1NAjOYb2inSnGA8G5qzW+2XJffuNt2bWwKFv2nKpFdN46d9pET2sUNS8IQGD8BBCci/WJ2A4hJwTn8ddNzgABCLSMAIIzgjOCczsqJYJzaJRhpA7ngXO9HXV3GksxLM026bOn8Vdv1zUhOA/vA+gnQ0b0ie2qw10tDYJzWK9oZ4rxQHDuao1vvtw6uPPQ0a/L9rlF2TL/XCXhWaOkNVr6kcdfEY2e5gUBCDRDAMG5WJ+I7RByQnBupn5yFghAoEUEEJwRnBGc21EhEZxDowwjdTgPnOvtqLvTXIqsNNukz57mX/z/b+9OvOyq7jvRv38hnR5Welw9J92d99JT+qVfu9Np0knaSSdOnMSOZ2NsYww2ZrAxNgZsBmMGGyxmAwYMGDMKzCBmEJqHEpolJISE5nlEAxK/t367dEunSlXSLanq3nvqfu5ad9XRveees89n331O6Xxr7905xyZwPv41wHWyv5FrYue03zqXRODcv105zzTnIXCuc6tvT9nzjzs/ePqd8YHP/DQ+cNpDTQfP//0zd5de0tlb2oMAgdYKCJybuyb63aG/k8C5te3U3ggQ6ACBDJwnTZ4eV94x2ZNB09+Bp16YFnlDxmPkBDJwnnLX92Ly9Wd6MmjqO5Dfl/zeeBAYTYHGMNu/f9aEyOe3rp8Q+ZoHgdEUyMB56q0XNHUudN30e0N+B1wTR7NFds+28/8305592LnH7+LD+g5Mf2VC7Nhh/tzuOVOMzJHuP/Be3HDvpPi9z94WOU3NB057eMhn9obOXtE/uOMVv4ePDL+tEBi2QAbOUx65bVjXB/9P8f8UgfOwm5oPECAwFgTWrVsXeeH0ZDCc78DBgwfHwte/Y44hb1IMx9+62mt+B9zc6pgmPOYL0hgNY8wfqAPsCIGtW7e6JvrdfNjfAdfEjmi+tS5E/v/G79h+xx7ud2DNmjVx6NChWn/3Fb59AitWb4m/+Mq98bufvSty2pr+wfND8bun3l16Q2evaA8CBNonkB22hnt9sL7fKbq1s9b/1b6mas8ECBAgQIAAAQIECHS6gMC502tI+QgQIECAAAECBOoqcPfjM+P3PnNb/NdP31tC5+z1nL2fb/n5lMje0B4ECBAgQKAuAgLnutSUchIgQIAAAQIECBBog4DAuQ3odkmAAAECBAgQINA1Apu37Y6PfmN85O/d/+fs8ZG9nz0IECBAgEDdBATOdasx5SVAgAABAgQIECDQQgGBcwux7YoAAQIECBAgQKArBSZM31AC52seeLMrj99BEyBAgED9BQTO9a9DR0CAAAECBAgQIEBg1AQEzqNGa8MECBAgQIAAAQIEioDA2ReBAAECBOouIHCuew0qPwECBAgQIECAAIFRFBA4jyKuTRMgQIAAAQIECBCICIGzrwEBAgQI1F1A4Fz3GlR+AgQIECBAgAABAqMoIHAeRVybJkCAAAECBAgQIBARL8/eWIbUvuLeJTwIECBAgEAtBQTOtaw2hSZAgAABAgQIECDQGgGBc2uc7YUAAQIECBAgQKB7Bd5Ytr0EzuffNK97ERw5AQIECNRaQOBc6+pTeAIECBAgQIAAAQKjKyBwHl1fWydAgAABAgQIECAgcPYdIECAAIG6Cwic616Dyk+AAAECBAgQIEBgFAUEzqOIa9MECBAgQIAAAQIEIkLg7GtAgAABAnUXEDjXvQaVnwABAgQIECBAgMAoCgicRxHXpgkQIECAAAECBAhExLLVu8uQ2l+6tocHAQIECBCopYDAuZbVptAECBAgQIAAAQIEWiMgcG6Ns70QIECAAAECBAh0r8D6LftK4PzJy2Z2L4IjJ0CAAIFaCwica119Ck+AAAECBAgQIEBgdAUEzqPra+sECBAgQIAAAQIEBM6+AwQIECBQdwGBc91rUPkJECBAgAABAgQIjKKAwHkUcW2aAAECBAgQIECAQEQInH0NCBAgQKDuAgLnuteg8hMgQIAAAQIECBAYRQGB8yji2jQBAgQIECBAgACBiNj/3qEypPaffH0yDwIECBAgUEsBgXMtq02hCRAgQIAAAQIECLRGQODcGmd7IUCAAAECBAgQ6G4Bv3d3d/07egIECNRdQOBc9xpUfgIECBAgQIAAAQKjKODG1yji2jQBAgQIECBAgACBwwJ+7/ZVIECAAIE6Cwic61x7yk6AAAECBAgQIEBglAXc+BplYJsnQIAAAQIECBAgEFGG1M7fvT0IECBAgEAdBQTOdaw1ZSZAgAABAgQIECDQIgGBc4ug7YYAAQIECBAgQKCrBT5y8fQSOq/fsq+rHRw8AQIECNRTQOBcz3pTagIECBAgQIAAAQItERA4t4TZTggQIECAAAECBLpc4JOXzRQ4d/l3wOETIECgzgIC5zrXnrITIECAAAECBAgQGGUBgfMoA9s8AQIECBAgQIAAgYgQOPsaECBAgECdBQTOda49ZSdAgAABAgQIECAwygIC51EGtnkCBAgQIECAAAECAmffAQIECBCouYDAueYVqPgECBAgQIAAAQIERlNA4DyaurZNgAABAgQIECBAoFfg/JvmlSG131i2HQkBAgQIEKidgMC5dlWmwAQIECBAgAABAgRaJyBwbi/wUvIAACAASURBVJ21PREgQIAAAQIECHSvgMC5e+vekRMgQGAsCAicx0ItOgYCBAgQIECAAAECoyQgcB4lWJslQIAAAQIECBAgUBEQOFcwLBIgQIBA7QQEzrWrMgUmQIAAAQIECBAg0DoBgXPrrO2JAAECBAgQIECgewUuvG1BGVJ7xqKt3YvgyAkQIECgtgIC59pWnYITIECAAAECBAgQGH0BgfPoG9sDAQIECBAgQIAAgWseeLMEzhOmb4BBgAABAgRqJyBwrl2VKTABAgQIECBAgACB1gkInFtnbU8ECBAgQIAAAQLdKyBw7t66d+QECBAYCwIC57FQi46BAAECBAgQIECAwCgJCJxHCdZmCRAgQIAAAQIECFQEBM4VDIsECBAgUDsBgXPtqkyBCRAgQIAAAQIECLROQODcOmt7IkCAAAECBAgQ6F6BGx5eVobUfvTVNd2L4MgJECBAoLYCAufaVp2CEyBAgAABAgQIEBh9AYHz6BvbAwECBAgQIECAAIF7nl1ZAuf86UGAAAECBOomIHCuW40pLwECBAgQIECAAIEWCpx347zIpwcBAgQIECBAgAABAqMnIHAePVtbJkCAAIHRFxA4j76xPRAgQIAAAQIECBAgQIAAAQIECBAgQIAAgSEFBM5D0niDAAECBGogIHCuQSUpIgECBAgQIECAAAECBAgQIECAAAECBAiMXYGcuzmns7n58bfG7kE6MgIECBAYswIC5zFbtQ6MAAECBAgQIECAAAECBAgQIECAAAECBOogMGPRtjKVzYMvrq5DcZWRAAECBAj0ExA49+PwDwIECBAgQIAAAQIECBAgQIAAAQIECBAgQIAAAQIECBBoVkDg3KyU9QgQIECAAAECBAiMZYGeqfGB0x4e1vOynrEM4tgIECBAgAABAgQIECBAgAABAgSaERA4N6NkHQIECBAgQIAAAQJdILBy3c7o/1wdl13ycHzgkqkx8aj3dnaBiEMkQIAAAQIECBAgQIAAAQIECBA4noDA+XhC3idAgAABAgQIECDQlQI7474Mm097OPRk7sovgIMmQIAAAQIECBAYLQGjC42WrO0SIECAQJsEBM5tgrdbAgQIECBAgAABAp0qsLJnapyaw2tf8tyRwHndwvLaqbcvjInrOrXkykWAAAECBAgQIECgHgL9RxbKkYaMLlSPmlNKAgQIEBhMQOA8mIrXCBAgQIAAAQIECHSjQOMm12kPx6m3r46VsTouq/RwXtmzsHeI7fK+4LkbvyKOmQABAgQIECBAYDQEjC40Gqq2SYAAAQKtExA4t87anggQIECAAAECBAh0pkA1aC7zNTeK2T9wbrza1wP6tOfiPr2dGyx+EiBAgAABAgQIEBi2QN/v1kYXGradDxAgQIBA5wgInDunLpSEAAECBAgQIECAQNsEVj41WI/lwQPn3kLujIk9O9tWXjsmQIAAAQIECBAgUGuB6h99Gl2o1lWp8AQIECAQIXD2LSBAgAABAgQIECBA4LBAzhv3XJza93y4zOH8gdOqr+Xy1JjIjAABAgQIECBAgACB4QtUg2ajCw3fzycIECBAoCMFBM4dWS0KRYAAAQIECBAgQKAdAr09mk99anVM7Bni+dRz8YHTBM7tqB37JECAAAECBAgQGBsCRhcaG/XoKAgQIEDgiIDA+YiFJQIECBAgQIAAAQJdLnCsIbQP0/RMFTh3+bfE4RMgQIAAAQIECIyEgNGFRkLRNggQIECgMwQEzp1RD0pBgAABAgQIECBAoAMEBM4dUAmKQIAAAQIECBAg0BUCRhfqimp2kAQIEOgSAYFzl1S0wyRAgAABAgQIECBwfIHem15Hz9lcmcP5tJzX2ZDax7e0BgECBAgQIECAAIFjCfhjz2PpeI8AAQIE6iUgcK5XfSktAQIECBAgQIAAgVEU0MtiFHFtmgABAgQIECBAgEBFQOBcwbBIgAABAjUXEDjXvAIVnwABAgQIECBAgMDICeyM+26fGvetO8YW1+2MiT07Y+UxVvEWAQIECBAgQIAAAQLHEzC60PGEvE+AAAEC9REQONenrpSUAAECBAgQIECAAAECBAgQIECAAAECBMaEgNGFxkQ1OggCBAgQKAICZ18EAgQIECBAgAABAgQIECBAgAABAgQIECDQUgGjC7WU284IECBAYFQFBM6jymvjBAgQIECAAAECBAgQIECAAAECBAgQIECAAAECBAgQGLsCAuexW7eOjAABAgQIECBAgMBJC/zBOa9HPj0IECBAgAABAgQIECBAgAABAgQIDCYgcB5MxWsECBAgQIAAAQIECBQBgbMvAgECBAgQIECAAAECBAgQIECAwLEEBM7H0vEeAQIECBAgQIAAgS4XEDh3+RfA4RMgQIAAAQIECBAgQIAAAQIEjiMgcD4OkLcJECBAgAABAgQIdLOAwLmba9+xEyBAgAABAgQItFLgkjsXlelsXp69sZW7tS8CBAgQIHDSAgLnkya0AQIECBAgQIAAAQJjV0DgPHbr1pERIECAAAECBAh0lsA1D7xZAucJ0zd0VsGUhgABAgQIHEdA4HwcIG8TIECAAAECBAgQ6GYBgXM3175jJ0CAAAECBAgQaKWAwLmV2vZFgAABAiMpIHAeSU3bIkCAAAECBAgQIDDGBATOY6xCHQ4BAgQIECBAgEDHCgicO7ZqFIwAAQIEjiMgcD4OkLcJECBAgAABAgQIdLOAwLmba9+xEyBAgAABAgQItFLgjqfeLkNq//yFd1q5W/siQIAAAQInLSBwPmlCGyBAgAABAgQIECAwdgUEzmO3bh0ZAQIECBAgQIBAZwnc8+zKEjjnTw8CBAgQIFAnAYFznWpLWQkQIECAAAECBAi0WEDg3GJwuyNAgAABAgQIEOhaAYFz11a9AydAgEDtBQTOta9CB0CAAAECBAgQIEBg9AQEzqNna8sECBAgQIAAAQIEqgIC56qGZQIECBCok4DAuU61pawECBAgQIAAAQIEWiwgcG4xuN0RIECAAAECBAh0rcCE6RvKkNrXPPBm1xo4cAIECBCop4DAuZ71ptQECBAgQIAAAQIEWiIgcG4Js50QIECAAAECBAgQCIGzLwEBAgQI1FVA4FzXmlNuAgQIECBAgAABAi0QEDi3ANkuCBAgQIAAAQIECEQInH0LCBAgQKC2AgLn2ladghMgQIAAAQIECBAYfQGB8+gb2wMBAgQIECBAgACBFHh59sYypPYV9y4BQoAAAQIEaiUgcK5VdSksAQIECBAgQIAAgdYKCJxb621vBAgQIECAAAEC3SvwxrLtJXA+/6Z53YvgyAkQIECglgIC51pWm0ITIECAAAECBAgQaI2AwLk1zvZCgAABAgQIECBAQODsO0CAAAECdRUQONe15pSbAAECBAgQIECAwAgK5M2twZ6NwHmw9/I1DwIECBAgQIAAAQIERkYgf7/O37/1cB4ZT1shQIAAgdYJCJxbZ21PBAgQIECAAAECBDpW4JI7F5WbW42AuZmf+RkPAgQIECBAgAABAgRGRmDh2zvL7+RfurZnZDZoKwQIECBAoEUCAucWQdsNAQIECBAgQIAAgU4WWLZ697AD5/yMBwECBAgQIECAAAECIyOwfsu+8jv5Jy+bOTIbtBUCBAgQINAiAYFzi6DthgABAgQIECBAgECnCwynl7PezZ1em8pHgAABAgQIECDQ6QL73zvUb1qbV3o2lcD5o5dML6/PWLQ17nl2Zd/zyUnrOv2QlI8AAQIEulRA4NylFe+wCRAgQIAAAQIECAwUGE4vZ72bB+r5NwECBAgQIECAAIHmBXLY7Gamsamu8+ira5rfgTUJECBAgEALBQTOLcS2KwIECBAgQIAAAQKdLtBML2e9mzu9FpWPAAECBAgQIECg0wUmzds8rMD5T74+Obbu3N/ph6V8BAgQINClAgLnLq14h02AAAECBAgQIEBgMIFmejnr3TyYnNcIECBAgAABAgQIDE+gmT/2bPRwvvnxt4a3cWsTIECAAIEWCgicW4htVwQIECBAgAABAgTqIHCsG196N9ehBpWRAAECBAgQIECgDgLN/LFnBs56N9ehNpWRAAEC3S0gcO7u+nf0BAgQIECAAAECBI4SONaNL72bj+LyAgECBAgQIECAAIETFjjWH3s2ejdfce+SE96+DxIgQIAAgVYICJxboWwfBAgQIECAAAECBGomMNiNL72ba1aJikuAAAECBAgQINDxAjkvc/ZgboTLg/30R58dX40KSIAAga4XEDh3/VcAAAECBAgQIECAAIGjBQbr5exG19FOXiFAgAABAgQIECBwsgI5P/NgQXO+5o8+T1bX5wkQIECgFQIC51Yo2wcBAgQIECBAgACBGgpUezm70VXDClRkAgQIECBAgACBWggcq5fzG8u21+IYFJIAAQIEultA4Nzd9e/oCRAgQIAAAQIECAwpUO3lrHfzkEzeIECAAAECBAgQIHDSAo++uuaoXs5furbnpLdrAwQIECBAoBUCAudWKNsHAQIECBAgQIAAgZoKZM9mvZtrWnmKTYAAAQIECBAgUBuB/e8dio9cPL1f6Dxp3ubalF9BCRAgQKC7BQTO3V3/jp4AAQIECBAgQCAiDh48GO+8847nIAZzF74V+eRz9PdjzZo1cejQIW2IAAECBAgQIECAwIgIPDlpXV/g/MnLZo7INm2EAAECBAi0QkDg3Apl+yBAgAABAgQIEOhogR07dsT0VybE5OvP9GTQ9HcgvzP53fEgQIAAAQIECBAgMFICOYz2H5zzeuQQ2x4ECBAgQKAuAgLnutSUchIgQIAAAQIECIyaQIaGM555MCZ97Fc8GTT9HcjvjMB51JqlDRMgQIAAAQIEulIgh9HOobVziG0PAgQIECBQFwGBc11qSjkJECBAgAABAgRGTUDgLGg/kT82EDiPWpO0YQIECBAgQKALBFYsXRxzZ07xHMRg6uuvcxnEJb8vmzas64LW4RAJECBQPwGBc/3qTIkJECBAgAABAgRGWEDgLHAWOI9wo7I5AgQIECBAgMBxBGZOeT0mX/KhmHz+73oyaOo7MGXcObF0wdzjfLO8TYAAAQLtEBA4t0PdPgkQIECAAAECBDpKQOAscBY4d1STVBgCBAgQIECgCwQycJ50+q83PZ3Jify+5jNj6/f8yd/7a4FzF5wbHCIBAvUUEDjXs96UmgABAgQIECBAYAQFBM5j60ZUq24sGlJ7BBuhTREgQIAAAQJdJyBw9jv4cH9vFzh33WnCARMgUCMBgXONKktRCRAgQIAAAQIERkdA4Oxm13BvduX6GTgvefrO2L5qyeh8MW2VAIHaCmx+c07Mv/uimPzJv6Pn3sdcY6ae8Rux6NHrY+ea5bX9Tis4gdEQEDg7Pw73d3CB82i0RNskQIDAyAgInEfG0VYIECBAgAABAgRqLCBwdrNruDe7BM41bvCKTqAFAgJn15XqdUXg3IJGZxe1FBA4O1dWz5XNLAuca9nUFZoAgS4REDh3SUU7TAIECBAgQIAAgaEFBM5udjVzg2vgOno4D92mvEOg2wUEzq4r1WuGwLnbzwiOfygBgbNzZfVc2cyywHmo1uR1AgQItF9A4Nz+OlACAgQIECBAgACBNgsInN3sauYG18B1BM5tbrh2T6CDBQTOrivVa4bAuYMbq6K1VUDg7FxZPVc2syxwbmuTtXMCBAgcU0DgfEwebxIgQIAAAQIECHSDgMDZza5mbnANXEfg3A1nB8dI4MQEBM6uK9VrhsD5xNqRT419AYGzc2X1XNnMssB57J8XHCEBAvUVEDjXt+6UnAABAgQIECBAYIQEBM5udjVzg2vgOgLnEWqANkNgDAoInF1XqtcMgfMYbOQOaUQEBM7OldVzZTPLAucRaXo2QoAAgVEREDiPCquNEiBAgAABAgQI1ElA4OxmVzM3uAauI3CuUytXVgKtFRA4u65UrxkC59a2P3urj4DA2bmyeq5sZlngXJ/2raQECHSfgMC5++rcERMgQIAAAQIECAwQEDi72dXMDa6B6wicBzQk/yRAoE9A4Oy6Ur1mCJz7moYFAv0EBM7OldVzZTPLAud+Tcg/CBAg0FECAueOqg6FIUCAAAECBAgQaIeAwNnNrmZucA1cR+DcjtZqnwTqISBwdl2pXjMEzvVot0rZegGBs3Nl9VzZzLLAufXt1B4JECDQrIDAuVkp6xEgQIAAAQIECIxZAYGzm13N3OAauI7AecyeEhwYgZMWEDi7rlSvGQLnk25SNjBGBQTOzpXVc2UzywLnMXoycFgECIwJAYHzmKhGB0GAAAECBAgQIHAyAgJnN7uaucE1cB2B88m0Op8lMLYFBM6uK9VrhsB5bLd3R3fiAgJn58rqubKZZYHzibc3nyRAgMBoCwicR1vY9gkQIECAAAECBDpeQODsZlczN7gGriNw7vimrYAE2iYgcHZdqV4zBM5ta4p23OECAmfnyuq5spllgXOHN2rFI0CgqwUEzl1d/Q6eAAECBAgQIEAgBQTObnY1c4Nr4DoCZ+cPAgSGEhA4u65UrxkC56Faite7XUDg7FxZPVc2syxw7vazhuMnQKCTBQTOnVw7ykaAAAECBAgQINASAYGzm13N3OAauI7AuSXN004I1FJA4Oy6Ur1mCJxr2YwVugUCAmfnyuq5spllgXMLGqZdECBA4AQFBM4nCOdjBAgQIECAAAECY0dA4OxmVzM3uAauI3AeO+cAR0JgpAUEzq4r1WuGwHmkW5jtjRUBgbNzZfVc2cyywHmstH7HQYDAWBQQOI/FWnVMBAgQIECAAAECwxIQOLvZ1cwNroHrCJyH1cysTKCrBATOrivVa4bAuauav4MdhoDA2bmyeq5sZlngPIwGZlUCBAi0WEDg3GJwuyNAgAABAgQIEOg8AYGzm13N3OAauI7AufPashIR6BQBgbPrSvWaIXDulJapHJ0mIHB2rqyeK5tZFjh3WitWHgIECBwREDgfsbBEgAABAgQIECDQpQICZze7mrnBNXAdgXOXnjAcNoEmBATOrivVa4bAuYlGY5WuFBA4O1dWz5XNLAucu/JU4aAJEKiJgMC5JhWlmAQIECBAgAABAqMnIHB2s6uZG1wD1xE4j16btGUCdRcQOLuuVK8ZAue6t2jlHy0BgbNzZfVc2cyywHm0WqPtEiBA4OQFBM4nb2gLBAgQIECAAAECNRcQOLvZ1cwNroHrCJxr3vAVn8AoCgicXVeq1wyB8yg2NpuutYDA2bmyeq5sZlngXOsmr/AECIxxAYHzGK9gh0eAAAECBAgQIHB8AYGzm13N3OAauI7A+fhtyxoEulVA4Oy6Ur1mCJy79UzguI8nIHB2rqyeK5tZFjgfr1V5nwABAu0TEDi3z96eCRAgQIAAAQIEOkRA4OxmVzM3uAauI3DukAasGAQ6UEDg7LpSvWYInDuwkSpSRwgInJ0rq+fKZpYFzh3RdBWCAAECgwoInAdl8SIBAgQIECBAgEA3CQic3exq5gbXwHUEzt10lnCsBIYnIHB2XaleMwTOw2s/1u4eAYGzc2X1XNnMssC5e84PjpQAgfoJCJzrV2dKTIAAAQIECBAgMMICAmc3u5q5wTVwHYHzCDdEmyMwhgQEzq4r1WuGwHkMNW6HMqICAmfnyuq5spllgfOINkEbI0CAwIgKCJxHlNPGCBAgQIAAAQIE6iggcHazq5kbXAPXETjXsbUrM4HWCAicXVeq1wyBc2vanb3UT0Dg7FxZPVc2syxwrl87V2ICBLpHQODcPXXtSAkQIECAAAECBIYQEDi72dXMDa6B6wich2hQXiZAIATOrivVa4bA2UmBwOACAmfnyuq5spllgfPgbcmrBAgQ6AQBgXMn1IIyECBAgAABAgQItFVA4OxmVzM3uAauI3Bua7O1cwIdLSBwdl2pXjMEzh3dXBWujQICZ+fK6rmymWWBcxsbrF0TIEDgOAIC5+MAeZsAAQIECBAgQGDsCwic3exq5gbXwHUEzmP/3OAICZyogMDZdaV6zRA4n2hL8rmxLiBwdq6sniubWRY4j/WzguMjQKDOAgLnOteeshMgQIAAAQIECIyIgMDZza5mbnANXEfgPCLNz0YIjEkBgbPrSvWaIXAek83cQY2AgMDZubJ6rmxmWeA8Ag3PJggQIDBKAgLnUYK1WQIECBAgQIAAgfoIdG7gfFZsjmWx6oITvRmVn4/YM/6UaOYGzsmv07u/zTceKW/PBWfF4huHep4SPR87sm7uf/H4cbF4wPH2jF8We2acddS6J1/e/vse7vYEzsdu46s37IrXZq+JN1dtj117Dhxz5aWrtsWcJZvi/fcjtu/aFz1LNsaUuevKv/ODua3pC9bHW6t3xJ697/Xb1ltrdsT85VvinQ274r2Dh/reO/DeoVjw1paY++bmWLV+V9/rAxdWrNkRr89ZW7b97r73ys+JPWsiP3+ij0Pvvx+L394WbyzdFG+v3Xmim2nqc2k2a9HG8ly0Ymu8NOOd2Lx973E/m14vTl8Vu989dt00NpTbfOr1FbFp27uNl0bk59Yd+2Lx21tj0htrY/uu/SOyzZHcyMFD78fm7ftj5fo9sX7L3jh06P2mNt+pgXPPBf8tFnz/w/HGxX8QUz77D+KNb//PePPWM2P5T79+1HPRjz4ds879z0ddP6Z94Z/H0ptPj5lf/a1+78295A8jn8c6l04/49dj0Q8/FdO++M/7rTf/ig/FnAt/t99r1e0suPLDsfDqj8aMM/9d9Hz9v8ass/99TPv8Px1y/epnO2FZ4NxUs7FSFwoInE/ud9FOOL+1ugwC5y48UThkAgRqIyBwrk1VKSgBAgQIECBAgMBoCXRC4NwzRCi7am3E+2snDBHaHglsh/r85sOfXzXY9i+oBNE3Tog9a5c1+ZwwRAh+dOC8eEZExjODb3tCLK4GzheMiz0RUQ2sJ32sEZqfFT0XnNL3bPXNrcH2N9YC5737D8ambXsjA9xmnms37Y6dew6U+s0wctX6nf0+9+BzS+OLl78Utz4yr4TH1W2Wz+4+Ei7muj+6vyfef//9WLluZ9z+2Py44s4ZJVzOgO/FGe/E934yPV6cfnSY+ovn34wbfv5GCVozjN62c1+s37In1mzaHbc9Nj/G/WJuPD3p7di6c19s2Ppuv4D13b3vRe77zKteiTvHL4iZizbEHeMXxJeufLmE2I0yZ5kyDG2E0BlCbtiyp5S1sU7157J3tpft/PjBN0pIm6HwaD0y3P7B3bPi2ntnxwMTlsRXr3k1ps1fHxmeH+uRwfTnvvtCrNm4u6yWx5R+GUQPFvzOW7Y5/uL8p8ofBuQH9u0/WML06nHncrrkdg4efL/UQ9rl6xns5x8ODAy4MyS/9+nFccGPJ8Xy1duPVeS2vLfvwKHoWbotHnl1TTw5aV2sWLcntu48EPsPHCrf/aEK1amB89Jbzoj1r9wXaybcFjPO/Lex8heXx7vrl8feDW/HnjVLYvc7i+LddcvjwK4tsW3h67Fk3Odj0sd/NaZ85u/HzLN/K3q+/jux6LpPxL7N78Tyu84v/5517n+KqZ/7x7Hm6ZvKM9ed9PG/NWgYnEH3tgUTY8FVfxXTvvDPYvKn/l5kCL1pyqOx4v7vDPqZPP+uff6O2Dzjl7Hkhs/F0hu/EEvHfSEWXvXXZf9ZpsZz9vn/pQTRkz/5d4bc1mDn89F+TeA8VEvxercLCJwFzsM9/wqcu/2s4fgJEOhkAYFzJ9eOshEgQIAAAQIECLREoP2B8ymxakaGvRNi84ze557DPxv/PupnCYcbge0p0Qimj1pviO3sySB6xllHbshfcMoQofaA3snjJ8SeIXtdHx04Z+/kfvupBswDlgdbt7xWDawjA+zGcbf3Jt1YC5yzN/C4X7wRf/q1J5t6XjBuUjw3dWVkUHnbo/Pis5c83+9zf3TW+Pi9Lz4af3Dm4/HHX32i33vfuGFSCYEbDbwROOe/M6jMXslPv/52zF+2OXa9eyCemfR2XPaT6bFj9/6jephefueM+Oo1r/UFzj+fsLSE0xliXndfTwmc73pyYfzs6cVx1d0zS2/m3E+GwDMXboiLb5ka//P0R+MPz3w8/uTsJ8rP3zv90fg/Zx9x+NR3notHX15eQuz8bIbaud9PXDSh33E17D507i/jWzdNiVYGzjc/NDdenbUmbnt0ftz91KKYvXhjg3fQnwMD57SdsWBDfPGKl+Kxl5cf9ZmBgfPSldviIxc8c9TxX3HXjJg6f31s2b43vnf79Pj4t3uN/vy8X8YZ33+59HqvbrzTA+d39x2M1+dujm/eOj8+cvG0OPOHc+KBF96JZat3x3sHh/5Lgk4NnDOYXfnQlbF75byYfe5vl8A5g9yFP/hIzDr7t2L66f+y9FJe9/K9sWna+BI4Tz31H8UbF50SW3uej/07NsaBXVvj0KGD8d6eHeXfu96eWz6foXE+s6fylE//2pHrS+VcP+dbvxdbZj8b2xdPLj2rM8Re9fi1kdtY+dDlg34mw4hF13481r90d/ls9m5e/csbYu/md8r+s0yN595Nq2LpTafHjC//xpDbGm64MRLrC5yrrd4ygSMCnRk45++zRhjq1BGGBM5H2o8lAgQIdJqAwLnTakR5CBAgQIAAAQIEWi7Q/sC5f3DaG7IOCFVvnNAbtA4Ybrr3Rnhv4DycobNLz+Nq4FwJBI55c730Qh5wE+5w7+jNGZqXcHhCbF67LDaPPyUGC5EH3/4gN/eO6vE8/OMcfF/9vU90nbEWOGeImuHfk6+tKKFj9vrNXsfPTn47zr/+9Tj72tdKyPqTxxfEpy5+Lm74+ZzSOzaD21zvopunlJ6qGUK/MH3VoM8ckjmD2svumB73PbsklqzcVrZz6qUvlMD6lofnlfcvvnVqfOeWqfHtm6bEIy8ui+//dGb81TeeLvu45NapJazetmtfPPLSssjP/p+vPRlfufrV0qv4R7ZQ1gAAIABJREFU+WmrIkPns37wSlx2x4wSOF9196w47XsvlmPJHrj5yJ7BNz40N7527Wtx6W3TSnie5b7qpzPj0xc/H7+cuKLvGF7rWVN6MzeG885hoC+8cXIp6wMTlvat1zju7Ik9Z+mmyFA2e3OPxCN7eadDHn/1mVYf+eYzJfz+8lWvxKcvfi4yIM9jnrFwQ1+v7OzJnP4ZCOfnsxf3B7/yRGT4f+VdM+PKu2YU85sfnhcZLhejQ+/HrMUb484nFhan3z/jsdKDOsP7HOI8jzOdv3Xj5BJSf/2GSXHzw3NLT/Ecert32zMit5n7OOPKl4tb9TjOuW5ifOaS5yMD6fN+NLH84cBIeI3UNrLn/7SFW+PrN8+LPzpvUvzZBZPj81fNju//bEk89PLqmLFoW2zYuq/0eK7us1MD5wyPc2jqDa/9PGZ+5TdL4Lx75fzYNu+VEjBvnPxIbOl5LvasWxZb571cAufJn/y7Mf2L/yLmX/HnseTHnys9kfdv31BC3/z3kh+fVkLe7Qsmxr7Nq2Pb3Jdj09THY82zt8biH3+u9GJeeM3H4p0nfhhb574U+7aujQN7tseut3piy+ze0TUyvN69akFsePX+EkDPPu+/lMB4xpf/Tax5alwJnHP47/mX/WnpbZ2h9uonbyjbWvGzb5dyrXrsmti78e1485Yvl6G3T/TcPhqfEzhXW4dlAkcE2h04DzVCUOMPOQefFsYIQ6Nxnmx2mwLnI+3HEgECBDpNQODcaTWiPAQIECBAgAABAi0X6JjAuTJkdPZ4LoHt4ddWzci5mKvDSldD02oQe3gI6qGGxz48ZPXiDIf7Bc6nxOLxE8o+j3nDZ7DAuW+e5t4hsbOc5QbdBb/SGzivHTdo7+nq/M0ZgPcF5ofD9VUDy9MI3ZsNx0d5vbEWODca3t5978X4V9+Kmx6aG/c8taiEltkzOEPlHJp61bpdZRjqHLa58cj3xj34Rukx/PzUVSWsfeLVt6L6fGby2/HqrNUxcc6aElROfmNd5NDTOXz26Ve8VALTDH4zPP7fZ40vAWT+vOS2aSWkzJ6y+cweuNl7Oef9vfS2qaU38w/umRU/vK8nfv7c0pi1aEM89MKb8cdnPxGfv+zFOOe618rP/3XGY5FlyJ63OWR0zhGdAednL32+9EbOXr1Z3u/ePj0+edGEyKG6898ZYGd4vP/AwcbhRiNwzvLe9cTCfsdZPeZczn1Onbdu0GGq+zbYxELOK50hfx5rv+fds8oxZGh77g8nlqA53//ZM4vLXNiNea3Xbd5TjuX6B3q3kX9AkD26L7l1Wnzuey/EJ749oQzNnXNp51Dp+chQfu6bm+L+Z5fEN8dNjv/15cfiGz+eFA+/+GbpQZ1zdGd4nH8UkMOVX/uz2eU7k3NXNwLn+55ZElnX+ccBGUDn0OjV48jg/guXvRh/efgPCvI4O+mxd/+hmLlkW1xwy/z4g3Ne73v+5UVT44xre+KKe5eU4bZnLt4Wqze+G9kjOoeB79TAOc/vM7/yf8fC6z4RU0/7JyVw3rViTmyZ+XQZanvdiz+NTVMei93vLCzhcBlS+/C5dN53P1iC5VWPXBX7d2yKtc/dHjlEdwa8a5+9tfRuzh7OG157IHavXhw7lkyLFQ9cWgLnBd//y3j7F5dHbr/x3LlsVmSP5HUv3d332toJt8XbD343Zp3zn0rgnMFzDvW9+EefOqrHcr6W7zXC6fmXf6iE1ktv+pLAuZMakbIQOIZAewNnIwzlNWGwPw7t/ePXypQ4HTTCkMD5GA3KWwQIEGizgMC5zRVg9wQIECBAgAABAu0X6IzA+fCw2NHEPMp502ftuKgGtv1C4sMhdYbK75chAY/MfVzmQR40iD28/34hdDXUPrw8WODct70hhtTO3s79hvZulKux/d7P5eC0jWfvPM5Hv954P3/2n+u5sa3W/czAecZj98TbixfFlh37a/vctutA5Dy1GZJlb84y//HG3fH4K8vLkNS3PDIvvnPLlLj10XllyOXBWuxPn1wY9z61OF6eubrM25zDaf+PLz4S+fOvL3gmPnrhs6XXcIaWb67aHvsq4W1uL4fUzvcefWlZ6TGb6zeeObfvFXfNLEFq9tp94NklkaFkBsbZU/rlme+UuYEbc0rPWrSxlPt/f2V86RWd2/nw158q4erV98yKDEMz6P7WTZNLb93sOf2B0x4e8pmfzVB1+659fYeegXOWK0PaRjmH+nnaZS+WobxXrN3R9/kTWcjgeOee/eVYcy7kfGZd7dpzILKO8g8EXp+ztszdvHnb3jL8eGM/GbBn4Nz4XP4c/8pbZYjrniWbIkPoC8dNLn8QkDa53RxiO3uv57GmbdbtX3796Xhx+qqynenz18dXr3617HfSG2tj4VtbDvf4XhKLV2ztC5xzDu/sNZ/BfH6Psow5F3b2qM8hqQcOqZ3v7dzzXse0p7Wb98bLPZvi3HFz+8LmavD8R+e+Hp+9YlZcdvfieOSV1bF45c7YvGN/rF04K+b/9KKY1ClzCX/8V8s8yzlvcw5JnT+z53LO4bxl1jOx+PrPRs8FH4hZX/sPMf+KD5UQeO0Ld0X2TG5cX3JI6wM7N/edp/M8/N67O8ucz9lLeuVDV8Tci/8wZp/327H6l+NidfZMvv4zfZ9vbKfx8+2fXxpbZj0dkz/xt4dcpxE45zDZ07/0r0v5soz5zDmk392wIhZ8/8Mx48x/E4t++EmBc6PR+0mgJgLtDZz7/85ohKHDHh0+wpDAuSaNWzEJEOhKAYFzV1a7gyZAgAABAgQIEKgKdFLg3NfLN3sc3HhWX6icPYYbAXO5IXaMwLnnxnGxOedozuGtBwbIFzRC4VMG3OBvBN6V3gyD9pLO7Q4YUnvQwDlD7sF7TUw6Rmidx3akzFnWxr6yfNXlzgicL77mqfj+nTPjugffrO3zlvFvxdzl22PHngOl12r2CP6bC5+Nh19cVnrlbtq2N370QE+ZAzmHiB7skT1iM/jcuPXdePSl5WWI5L84/6m49PZpJdzdsOXdMgTzTQ/PjZsenhfzl2/pt5kMnLO3cfaozp7LuX7j+YO7Z5WesRk2NwLnnOM537/7l4sih5HOUDjnkM5eytmjOLeTn8swM9fL3tjZczmHe87A+Z0NuyKD0Pz3l696eciwOYPo7HGdQ3tn8Np4bN6+N3LI8exJ3SjnUD+zp28O/93oadzYxnB/ZmCcPYnzWBvPr17zarwwbVUZNvyO8QvK8vxlW+LyO2bEg88v7dvFPb9cVP4QoPG5/Jlu2SP5kxc9V44jt5NDcWcAn9vNOsky3/iLN+Jz332h/OFAGue8zfn5T37nuWKadZFDa+ew2jlEec4FnqFxo4dz/sFBmQ/7nCfLdjNwXrFmR+TQ7Gk2MHBevmZ3PD5xbfzoF8viugfb/7z6gTfjW7ctiL+5dPqggXOGzx88f1L86QVT4pPfmxHfvn1B3P/8qpj4wmsx545vd0zgnENpL77+M7F55lOlV3D+nPnV3yqBcw5DvX/7xti3ZU0ZEjuH0962cGLM+96fxJTP/oO+a8VggfPB/XvLMNYbXn8w1r/6QKx/7YFYO+H2WHz9qaXncfXzjaC58XM4gXP2fM7t5pDdjeeBnVvi0MH3Yv+29WU48PWv/Ezg3NfqLRCoh0BHBM5GGOo9z9dkhCGBcz3atlISINCdAgLn7qx3R02AAAECBAgQIFAR6MTAuafc9KkErH29lY8MU90IoPPmfYbTOQx3zk77fvYovvGU6A12jwxVndsscyzPOBJeN278T/pYb+C8Z8bgw1/3zWE3PrfRKFf/niG5v5z5tdELOXsgl3D8qNA7h94eZBsZRPcL0js/cD7vymfjWzfOiEvuXFTb59UPLI2Zi7dG9nTOkDCHvc4gN0PbHP46h9i+5LapZYjpxlDLleZTFse/sjyuvnd26XGcw0xnj9kMaXO46hyaOodTvv3x+aWn8F1PLixzG+cH3933Xgkec+jrL17+Uln3uvt6Sk/ZnOs5n40hoC+6ZUrkM0Plt9bsKENc588fP/hGGeY5h/TO8HLy3HVleO8MRC+6eWrZRg4DncFqDrudgXPOxZzheYbquY+cLzrnN35m0tvl3xm8lvB60tslTJ29aGO/IbUzcD7j+y/H/c/09rZulHXgzyx7bjd7Cp/sY/WG3aUHeFrd98ziMsR5Djeec01n2JzzJN/+2ILS0/zGX8yNV2ev7ttlhvjZQznrIsv9wa8+UZ5p8j9Pf7QMU372Na+VocwzOM76enPVthI45/Dl+ccA2VM7g+jrftYTD0xYUkLq3P93fzI9zvzBK/Fn5zxZ5o/O+s25uRuBc/ZCzzrKuaO/OW5SCcIzqM8hwCfNWVv+GCD3kT3Gl6/eHktW7SqB7aV3ZZta2Pbnd36yMM6+4Y346+9MGzJwbvR4/tCFU+KsH82J259cES8982r0/KRzAufszZy9gt+89czYOPHB2Ll0ehm2Ons47145L7YtmFh6K+9aMTc2T38ydrw5vczDvOiHR4ayzt7Li284NZbe/KUjzxu/GIt+9KmYe8kfRs6hvHHKY7H66Ztj9vm/U+ZazmtMhs4ZLmdgncNtN545lHeGxzmfdOO1xs8s5+xzf7uE1jls9lt3fyPmffePY9kd58T6l+6J/OyBXVti37Z1Zds5ZPeyO88VOPe1egsE6iHQ/sC58QeXRhjKX1XqMMKQwLkebVspCRDoTgGBc3fWu6MmQIAAAQIECBCoCHRa4Nw7pF9vaFyGwG4MkZ1h79oJsWr8sqOG1O7t9TwhVmXQXALoRrh8+OfaHMY64v2B4W9f7+TDgfP4gT2fB4TKue0LBqxzeOi9RtDcr5f24bL2BdY3nlXmij4qcK72ei7Hm/vtDZw3lzmhs9d2zmud80P39uDuhCG1b73l0XjgiTnx2Gtra/t8esr6WLFuT8xevKn0kM0AM4c/ziGuc9jpnM85w8GcezcD2cbzpRnvRPZuzXl+G4FzBrcZiF5z7+wSTJ7zw4nxlatfLXMLf/2G10tw/VrPmsghn/cfOFSGas6exvmZDC2fm7qqzNNcHeL6J4/NL6H0eddPLIFn7jd7G2dYneFxBtQZKOc80tnTNueQzvD5WIFzNv8MgTMMHhg43zl+QekdncNAN471hemrSpidw0znoxE45/zTP3t6cfzZOb8s80w3AucMWTNA/fL3Xy7bSqOTfWS4nnMpDxY4Zx39+OdvxPnXvx7funFK6eW9ZuPufrvMHtI5B3c6f+HyF0udNMqbP8/70evxN996tvyxwfLVvcN/Hzz0fgm0syd0fheyDtM5vyMZYOdrZ/3glbLfDPfTPIctnzpvfV/g3JjD+dGXl0f+MUL2vM7h2vN7kXNcZ8/qauC8bsvemDJ/Szw+cU089lr7nw+9vDpueHhZnHrlrEED5z885/X48wunxGeumBnfuGV+3PbEinhp1sboeX1yvHFnBw2pffhcn3Mjr7jvon6B87a5L8WK+78T6164Mza8cl+Zi7kaOE/5zN8v4e+iaz9+JGiuhM6LrvtECZVX3Ped2DzrmVjz3O0x/Yxf7+sZPVjgnMN4v7v+rTh4YF/s3by6DOvdCJvz58DAOedrnvKZXysBdM4Xnb2dN08bbw7nfq3cPwjUT6BTAud+v7tWRhUywlDnjTAkcK5fO1diAgS6R0Dg3D117UgJECBAgAABAgSGEOi0wHnSBb2haqO38p4BYXFvuDz4HM49OWR2Dqe9dkIsvuBX+no5vz9jXPSUUHdCLO4LmathcvOB85Fe0Y3PnxKLS9DdGK678XqjN/bAOZwnxObsSZ3lK2Vp9C450ju6t6dz7/b29Jv/OT/bG6J3QuC85Ok7Y/uqJUN8s+r1cs7DnD17q8Mu53DS/+MLvXMx55zIf/zVJ/rez2GWc7jlHHY5g9gcTjsD4PN/9HrZTg5hnb2E//y8p0qv2m/fNDm++5NpZTjrgwffL5/Jnrc5b3QO35zrz1iwocz1XA2cfz5haZm3ufSy/d4L0bN4Y4HN/eVQ35+4aEL84ZmPl9A3A94MsI83pHZu4P33e8PUDEyr+8ugOIPdP/jy4+X1nIv6L7/xdOlFnENBZ9kzzM3gNnsWP/zCshKerly3s6/Cc9s5V/UtD8/rFzhngJtBeZY951XeP2Au674NDLKQvYZzGOpq/WRv5bTL+ZQzZP/IN58pZclhrauP3NfTr6+IL1z2YplX+7u3TyuBcXUY8OwRnaF+9l7uC5wPvl9C4R/e31OGR8/AOeeqPvva1+KH988poXoeY86pnb3LcxjztM/vQaOHc4byGdzn6xfdPKWsu3Hbu/HC9HfK89nJK/sFztVyd8Ly3v2HYuaSbXHBLfP7Bc5/dN6k+JNvTI4Pf3tqnH3D3Ljl8bfi1Tc2x8Zt+8qQ4pvfnBPz774oJnfKHM5DBc4PXVHC3kXXfiJmnfMf4+0Hvxe7VrwR2xdPKXMjTz3tn8T00/9VCZp3Lu+Jg/v2lOehQwfj4Hv7y/Kut+fGjC//m1j5yPdj5/LZsWX2szHzrN/sC5yPumZ84ldj3qUfLL2a925aFVt6no+5l36wBMoD1+2bw/mWM6LnG/9fLPvJ2bFn9eJYcuMXIkPo7P2c6+Tn5l/+IT2cO6HRKAOBYQh0WuBshKH83byzRxgSOA+jgVmVAAECLRYQOLcY3O4IECBAgAABAgQ6T6DjAucMBgaEw4tnVIbGPqqH8ymHew33zq9chtP+WL6WvZqXlaG23z88VHVuZ/BezsMLnI/q5VzCjCEC5yF7VTcC5zzes47uOd3vhldl3cb81n2Bdf/3BgYWo/XvGc88GGMpcM5QMoPU1Rt29T2zB/BfnPdUGdY6g9wMYhvvr920u/Q0zs67GXbm8NmnX/FSGdI5ex1nj9nTvvdC6QGbvYAz0M4hmbM37uqNu+PQofdL4Jrh7PEC5xzi+eJbp8bnv/diX+Ccwe+WHXsje9BmD9wMSrOH84QpK0uv5wzIcz7iDEgzpP2Ts58ovW8zDM1HY7/ZY7gaOGfQ/KdfezL+++cfKa9/9JvPlnA1bXJu4kZP4W/fPKWUeziBc/aMzh69n774uWLas6Q3PG/mrJjh9Lad+/r8sx5embm69D7PnuZZNxlAp8GW7Xv7bTKHEs8e61kHGSp/7FvPlnpNm8Yz59zOPzDI3u2NwDn/mCC3e+G4yWXO6gycs67mLdtc5mpOg7Kt858q1mmedV8NnHP7Hzr3l+V56qXPl/Jl3e3ee6A8s+zVHs79Ct4B/xgqcP7oJdPj/JvmxR1PrYipC7bEmk17Y8++g+UPErJN1CVwfufxa2P/9g2ll/GOJVNi+Z3nxoKr/iq2zJ4Qu1fOj7fuuTAmf+JvRwbP7zx5Q5kDevPMp2P/jo2x8605kcv5+rTP/7NY8+wtsXfzO7F94esx86v/z5CB8+RP/b1Y9/wdsXHiz2Pd83fG7lULY+3zPymB8cDzdSNw3tLzXORz98oFsfzO82LW2f9e4NwB7UMRCJysQCcFzkYYOiV6yu/WvYHzkVGFOmuEIYHzybY6nydAgMDoCQicR8/WlgkQIECAAAECBGoi0LmB87Jo9O7ds/ZYgfOvxKQbx5XhtHNe557DQ07nfMxlnuecD7oxN/Lh4a/3HDWP83AC58M9khvbPNxzrrdHRGP+t94QuNy8ayZw7ttG75DdvUMYVntYtCdUHhh+VP891gLnRnPNXrgZquawxzk8cgaID7/wZmRP1SvvmlFee2XW6li/Ofvg9z5mLdpY3s8hnc/6watxya3TSu/fR19aVoZuzrmDpy9YH89OfrsEnzf8fE5Mnbeu8fG+wHnmwg3l/avunlU+n0N557DLGVhnmJpBcA7nnMFr4/HEayvKHMzZA/rO8Qvj0ZeWx22Pzo+vXfdaCaPz89kz+KyrX43cbzVwzjA15yHOIbDzeHPd6vMH98wq277tsfnRmL86P3/FnTNK7+UcAvy+pxeXMDWHE8/1y/PuWWUO6+w9nb1+G0NqZ4/i8a+8Fb9/xmMlQJ8y94hB43iG+pm9iLP8ffu4Z1bc/PDcErDf9NDcuPiWqcUuw/e0zjpK9337D5ae45PeWFuOPXs3Z3if8zxXjzW3leF7WjcC5wzYs/zfuGFS2Xb29M6eyjnX8q53D8SMhRvK/qvbmbN0Uwm8Gz2cc38ZYucQ5Tkc+uqNu/odYvaM7uzA+WAZ4jvD5Q+ePyn+6qKp8e3bF8T9L7wT0xZujbfW7o7tuw7Egff6D5veqYFzDou9acpjsW/rulj91LhY9/I9sf6Vn8Wy278aS8Z9vvQWnvaFf156N+dczQuu/Ivo+fp/jfmX/WmZ03nNMzfHkpu+GHs3rYyVD10eb//istg2/9VY+chVsf7V+2LTtPGx7oW7ItfLeZ2r58zpX/wXseDKD8e6l+4u21r+06/HGxf9fiy+4bOxaepjpaf1qkeuip7zfyemfvYfls82Aufc7tsPXhZv3v7VWHrjFyPX2zrneT2c+7Um/yBQP4FOCpyNMBRRhxGGBM71a+dKTIBA9wgInLunrh0pAQIECBAgQIDAEAIdGThnD+Wc77j6PDx38uBDap8SOQxgBtM5nHZjLue82X/U+odD59L7ua+X8FAh8iBBbyO0Pmq+56N7OJce1WvH9T+OyjGVQDy31xg2PHueRgbtGZYfI3AuZVgWq24cpHyV8Loadoz08lgLnLPHcgbHz01dGTmMdfaKzeGSZy/eWJ4ZFmfonGFyhpo5THL2+s3enHOWbIqfP7c0rvnZ7DJP74/un1N6HOeQ2hm6ZiCZ8zbn0Ns51/AVd80oPZ2zB21u/4YH5pQwO/efIfdDL7xZAtMMmbP3dG8P3UklKM2e1jn0duORgXPOQZwhcH4ug83s9Zyfy9AzexU/P21V5HzSd/9yUeTQ1PnIHs4ZOOfc1LnPPO6cq7n6vP6BOWUo6UbgvGfve/Ha7DUlpH511uroWbypBLQZhGfYfsmtU8szA91zfzgxvnRl/zmcsxf5pDlrS7CbofpwAucXZ7wT3//pzL59fPHyl8rw2dljutRVGUp8cZxz3cRI/zTOPxDIMjce6XH5ndPLMedw4NVjzVD49Ctfip890xs4Z9icQ39nkJ1DamddZjifdZW9nKufrS5n0L101bbYuXt/8X19ztpSD40yNH5mD/elK7eVOrvyrpkl2M95qjvtkUO+55zSV9+/NL5x87wY9+jyeKVnU6zdvDfyjzOGenRa4Jy9ijM4XvXYNbF51rNlnubNs5+NLXNeKAHwkh9/LgZ75lzKGfIuvOqvY9VjV8fbD3433rr7G/Hu+uWx8OqPxOLrP1N6Ou94c2asGv/DWHzD52LJDafG1rkvlUC654L/FpM/9XdLYL3sjq/FO+Ovi42THoq37r0wei74QF8gnf/OeZ0zvH7nsWtiwQ/+Omac9e9KAJ7DZq969Ael/Dmf9Lzv/kmsevTq2DDxwVjz1LgynPecC/9HWSfXzVA9Q/ORPuefzPamnvEbsejR62PnmuVDfWW8TqArBToqcM7fH8vvl0emnzHCUP/fs3tyfuu+/zv0f+9kzpHD+azAuStPFQ6aAIGaCAica1JRikmAAAECBAgQIDB6Ap0ZOA92E+esMjx2mdu5X6/h3qA3g9re4bR7P5tBcwmg40jv6L4bOhec1S+UztdLMF0C3yNzKWecMugz54iuBLtlX4fD4lWVG1GLZ2QZhnpOiN5187iO9NDuK+PHGiF477zNOXdz3zOD9ehfhiOfG8xu5F8ba4FzBprfunFK/Nm5vyzzImcAO9gjg8IMCC+9fVoJaTN0u/S2aSVEve3ReWWO4uwFfN3PeuLD5z9VAufscVt9ZK/WXGf3uwfiOzdPiXN++FrkZ99YurnMCz3uF2+UwDh7OOfw05fcNjWenbKyDGmdYWr2wm08cgjtLHvjkfMXP/ListJDOsPm7DWdvYKzd26G5hm65iMD50dfXl56QmdgPNQzQ+/sgZs9enMY6+xpnOFrBqprN+4uAfeFN04u7zXKkNt+a/WOEnBn8N3o4ZzvZ4ib4W72FM6ynegjQ97s1Z3DVecQ1/nIPxq46eF5ceqlL5QAPP8ooDpPdHpkeJzDnw92vDkEeYbwb6/dGbv2HOirjwzZG4+bH5pbhvEe7PP52t9c+GzcOX5BY/Uhf2a5fvL4/PjC5S+W7Y37xdxYvWH3kOu36419Bw7FvLd2xEuzNsasJdviwMFD5Y8sjleeTgucp33+n8Zb938nNrz+YKy4/+KYeuo/jOX3fDO2LZhYhsfOIbIHe+5aOa/0hM7QOM+xb9765dizelHsXDazhMhvfOf3Y/VTN5ahtedf8aGyztTP/ZN462ffLoFwzgmdw3FvnvHL2LN2aax78adDBsFzLvhA6bm8b/Pq2PD6Q7Hw6o/GrHP+U+xYMrUsH+scn0OD79uyJnatmFPmej7Wuu14T+B8vBbj/W4V6MzA2QhDm3NKnsrv8+04bw61T4Fzt54tHDcBAnUQEDjXoZaUkQABAgQIECBAYFQFOiVwXjy+f8/ko2+09M7VnL2XS8/gSuA76YLBXjsrcv614fZEyPmZj/0cJLzNAHv8WbF4xG9ODdLT+3AP6aMMqh4tWB5rgXMGjDmU9oo1O2Llup19Q0gP1vhyaOgcUjuHmc4/SMjld9bvKr2JM1zdu++9EqyuWLujBLHVXra5vRzmOdfJ8Dr3mT2lMwzN1zZt29v3XLV+ZylL7772l6AvA+OtlSG1swxZ9sYje6RmT+Kc3znnCn5373uxYeu7JUTNkDh7VTcejXmrs2ftUM8MmXN/Wdbs9ZsheX6u8e/stb1uU+/8zo3t5s8MVLfu2FeOpfr6Oxt2lR7GORx1lu1EH3nMazbtLvW1d9/BspksXzquWr+rhM95vNkDvfFIj43b3i3vD3a8GTTncOX7Dxwqx9eojzzmxqN3+zuH9HrvIok1AAAVl0lEQVR73c5i31h/qJ8Zyudc0/m9yfJmvWf5O+2Rfvmd2vXue/HuvoP9PI9V1k4LnHMe5umn/8uYedZvlp+TPv6rMe2L/yJmfe0/RM/Xf2fI56xz/3PM+PJvxKSP/60SFE/7wj+L2ef+55h1zn8soXX2OM73c87mqaf+o94w+RN/O6ad/i9jRu7rS/+qzAGd788+77djxpn/dsjAecpnfi2mf+lfx+zz/9+Y+ZXfjKmf+8eRPbNnfe0/luWjr4lHrkXTz/j18rkMqKd8+teG3MextjGa7wmcj9VavNfNAh0XOBthqONHGBI4d/MZw7ETINDpAgLnTq8h5SNAgAABAgQIEBh1gc4InI/cOB/Nm962PXLOYy1wHvWGZgdFIIPinL86A3GPsSvQaYGzc//InftPxFLgPHbbuiM7OYHOC5wHO1cYYaiTRhgSOJ9cm/NpAgQIjKaAwHk0dW2bAAECBAgQIECgFgIC58FurnnteKGCwLkWzVshCbRFQODsGlK9hgic29IM7bQGAp0QOBthaLDzdeeOMCRwrkHDVkQCBLpWQODctVXvwAkQIECAAAECBBoCAufBbjR5rRoWDLYscG60ID8JEBgoIHB2DaleNwTOA1uIfxPoFWh/4OxcVT1X1WFZ4OzsQYAAgc4VEDh3bt0oGQECBAgQIECAQIsEBM5utp3IDTaBc4saqN0QqKGAwNl1pXpdETjXsBErcksEBM7OldVzZTPLAueWNE07IUCAwAkJCJxPiM2HCBAgQIAAAQIExpKAwNnNrmZucA1cR+A8ls4CjoXAyAoInF1XqtcMgfPIti9bGzsCAmfnyuq5spllgfPYaf+OhACBsScgcB57deqICBAgQIAAAQIEhikgcHazq5kbXAPXETgPs6FZnUAXCQicXVeq1wyBcxc1foc6LAGBs3Nl9VzZzLLAeVhNzMoECBBoqYDAuaXcdkaAAAECBAgQINCJAgJnN7uaucE1cB2Bcye2ZmUi0BkCAmfXleo1Q+DcGe1SKTpPQODsXFk9VzazLHDuvHasRAQIEGgICJwbEn4SIECAAAECBAh0rYDA2c2uZm5wDVxH4Ny1pwwHTuC4AgJn15XqNUPgfNwmY4UuFRA4O1dWz5XNLAucu/Rk4bAJEKiFgMC5FtWkkAQIECBAgAABAqMpIHB2s6uZG1wD1xE4j2artG0C9RYQOLuuVK8ZAud6t2elHz0BgbNzZfVc2cyywHn02qMtEyBA4GQFBM4nK+jzBAgQIECAAAECtRcQOLvZ1cwNroHrCJxr3/QdAIFRExA4u65UrxkC51FrajZccwGBs3Nl9VzZzLLAueaNXvEJEBjTAgLnMV29Do4AAQIECBAgQKAZAYGzm13N3OAauI7AuZnWZR0C3SkgcHZdqV4zBM7deR5w1McXEDg7V1bPlc0sC5yP366sQYAAgXYJCJzbJW+/BAgQIECAAAECHSMgcHazq5kbXAPXETh3TBNWEAIdJyBwdl2pXjMEzh3XRBWoQwQEzs6V1XNlM8sC5w5pvIpBgACBQQQEzoOgeIkAAQIECBAgQKC7BATObnY1c4Nr4DoC5+46TzhaAsMREDi7rlSvGQLn4bQe63aTgMDZubJ6rmxmWeDcTWcIx0qAQN0EBM51qzHlJUCAAAECBAgQGHEBgbObXc3c4Bq4jsB5xJuiDRIYMwICZ9eV6jVD4DxmmrYDGWEBgbNzZfVc2cyywHmEG6HNESBAYAQFBM4jiGlTBAgQIECAAAEC9RQQOLvZ1cwNroHrCJzr2d6VmkArBATOrivVa4bAuRWtzj7qKCBwdq6sniubWRY417GlKzMBAt0iIHDulpp2nAQIECBAgAABAkMKCJzd7GrmBtfAdQTOQzYpbxDoegGBs+tK9ZohcO76UwKAIQQEzs6V1XNlM8sC5yEak5cJECDQAQIC5w6oBEUgQIAAAQIECBBor4DA2c2uZm5wDVxH4NzedmvvBDpZQODsulK9ZgicO7m1Kls7BQTOzpXVc2UzywLndrZY+yZAgMCxBQTOx/bxLgECBAgQIECAQBcICJzd7GrmBtfAdQTOXXBycIgETlBA4Oy6Ur1mCJxPsCH52JgXEDg7V1bPlc0sC5zH/GnBARIgUGMBgXONK0/RCRAgQIAAAQIERkZA4OxmVzM3uAauI3AemfZnKwTGooDA2XWles0QOI/FVu6YRkJA4OxcWT1XNrMscB6JlmcbBAgQGB0BgfPouNoqAQIECBAgQIBAjQQEzm52NXODa+A6AucaNXJFJdBiAYGz60r1miFwbnEDtLvaCAicnSur58pmlgXOtWneCkqAQBcKCJy7sNIdMgECBAgQIECAQH8BgbObXc3c4Bq4jsC5fzvyLwIEjggInF1XqtcMgfORtmGJQFVA4OxcWT1XNrMscK62IMsECBDoLAGBc2fVh9IQIECAAAECBAi0QUDg7GZXMze4Bq4jcG5DY7VLAjUREDi7rlSvGQLnmjRcxWy5gMDZubJ6rmxmWeDc8mZqhwQIEGhaQODcNJUVCRAgQIAAAQIExqqAwNnNrmZucA1cR+A8Vs8IjovAyQsInF1XqtcMgfPJtylbGJsCAmfnyuq5spllgfPYPBc4KgIExoaAwHls1KOjIECAAAECBAgQOAkBgbObXc3c4Bq4jsD5JBqdjxIY4wICZ9eV6jVD4DzGG7zDO2EBgbNzZfVc2cyywPmEm5sPEiBAYNQFBM6jTmwHBAgQIECAAAECnS4gcHazq5kbXAPXETh3estWPgLtExA4u65UrxkC5/a1RXvubAGBs3Nl9VzZzLLAubPbtNIRINDdAgLn7q5/R0+AAAECBAgQIBARAmc3u5q5wTVwHYGz0wcBAkMJCJxdV6rXDIHzUC3F690uIHB2rqyeK5tZFjh3+1nD8RMg0MkCAudOrh1lI0CAAAECBAgQaImAwNnNrmZucA1cR+DckuZpJwRqKSBwdl2pXjMEzrVsxgrdAgGBs3Nl9VzZzLLAuQUN0y4IECBwggIC5xOE8zECBAgQIECAAIGxIyBwdrOrmRtcA9cROI+dc4AjITDSAgJn15XqNUPgPNItzPbGioDA2bmyeq5sZlngPFZav+MgQGAsCgicx2KtOiYCBAgQIECAAIFhCQic3exq5gbXwHUEzsNqZlYm0FUCAmfXleo1Q+DcVc3fwQ5DQODsXFk9VzazLHAeRgOzKgECBFosIHBuMbjdESBAgAABAgQIdJ6AwNnNrmZucA1cR+DceW1ZiQh0ioDA2XWles0QOHdKy1SOThMQODtXVs+VzSwLnDutFSsPAQIEjggInI9YWCJAgAABAgQIEOhSAYGzm13N3OAauE4Gzvnd8SBAgAABAgQIEBi+gMDZ7+ADf78+3r8FzsNvZz5BgACBVgkInFslbT8ECBAgQIAAAQIdKyBwdrPreDe3Bntf4NyxTVrBCBAgQIAAgRoICJz9Dj7Y79jHek3gXIOGrYgECHStgMC5a6vegRMgQIAAAQIECDQEBM5udh3rxtZQ7wmcGy3ITwIECBAgQIDA8AUEzn4HH+r37KFeFzgPv535BAECBFolIHBulbT9ECBAgAABAgQIdKyAwNnNrqFuah3rdYFzxzZpBSNAgAABAgRqICBw9jv4sX7XHuw9gXMNGrYiEiDQtQIC566tegdOgAABAgQIECDQEMjAefrk1yMDRE8GzX4H8juT3x0PAgQIECBAgACB4QsInAXOg4XKx3pN4Dz8duYTBAgQaJWAwLlV0vZDgAABAgQIECDQ0QIZHHoyGO53oKO/1ApHgAABAgQIEOhgAYGzwPlY4fJg7wmcO7hBKxoBAl0vIHDu+q8AAAIECBAgQIAAAQIECBAgQIAAAQIECLRWQOAscB4sVD7WawLn1rZReyNAgMBwBATOw9GyLgECBAgQIECAAAECBAgQIECAAAECBAictMDs6ZNjxoRHTGljWp+mvwPTX3oq3lq66KS/ezZAgAABAiMvIHAeeVNbJECAAAECBAgQIECAAAECBAgQIECAAIFjCOzbt8+UNqb1GfZ34NChQ8f4VnmLAAECBNolIHBul7z9EiBAgAABAgQIECBAgAABAgQIECBAgAABAgQIECBAoOYCAueaV6DiEyBAgAABAgQIECBAgAABAgQIECBAgAABAgQIECBAoF0CAud2ydsvAQIECBAgQIAAAQIECBAgQIAAAQIECBAgQIAAAQIEai4gcK55BSo+AQIECBAgQIAAAQIECBAgQIAAAQIECBAgQIAAAQIE2iUgcG6XvP0SIECAAAECBAgQIECAAAECBAgQIECAAAECBAgQIECg5gIC55pXoOITIECAAAECBAgQIECAAAECBAgQIECAAAECBAgQIECgXQIC53bJ2y8BAgQIECBAgAABAgQIECBAgAABAgQIECBAgAABAgRqLiBwrnkFKj4BAgQIECBAgAABAgQIECBAgAABAgQIECBAgAABAgTaJSBwbpe8/RIgQIAAAQIECBAgQIAAAQIECBAgQIAAAQIECBAgQKDmAgLnmleg4hMgQIAAAQIECBAgQIAAAQIECBAgQIAAAQIECBAgQKBdAgLndsnbLwECBAgQIECAAAECBAgQIECAAAECBAgQIECAAAECBGouIHCueQUqPgECBAgQIECAAAECBAgQIECAAAECBAgQIECAAAECBNolIHBul7z9EiBAgAABAgQIECBAgAABAgQIECBAgAABAgQIECBAoOYCAueaV6DiEyBAgAABAgQIECBAgAABAgQIECBAgAABAgQIECBAoF0CAud2ydsvAQIECBAgQIAAAQIECBAgQIAAAQIECBAgQIAAAQIEai4gcK55BSo+AQIECBAgQIAAAQIECBAgQIAAAQIECBAgQIAAAQIE2iUgcG6XvP0SIECAAAECBAgQIECAAAECBAgQIECAAAECBAgQIECg5gIC55pXoOITIECAAAECBAgQIECAAAECBAgQIECAAAECBAgQIECgXQIC53bJ2y8BAgQIECBAgAABAgQIECBAgAABAgQIECBAgAABAgRqLiBwrnkFKj4BAgQIECBAgAABAgQIECBAgAABAgQIECBAgAABAgTaJSBwbpe8/RIgQIAAAQIECBAgQIAAAQIECBAgQIAAAQIECBAgQKDmAgLnmleg4hMgQIAAAQIECBAgQIAAAQIECBAgQIAAAQIECBAgQKBdAgLndsnbLwECBAgQIECAAAECBAgQIECAAAECBAgQIECAAAECBGouIHCueQUqPgECBAgQIECAAAECBAgQIECAAAECBAgQIECAAAECBNolIHBul7z9EiBAgAABAgQIECBAgAABAgQIECBAgAABAgQIECBAoOYCAueaV6DiEyBAgAABAgQIECBAgAABAgQIECBAgAABAgQIECBAoF0CAud2ydsvAQIECBAgQIAAAQIECBAgQIAAAQIECBAgQIAAAQIEai4gcK55BSo+AQIECBAgQIAAAQIECBAgQIAAAQIECBAgQIAAAQIE2iUgcG6XvP0SIECAAAECBAgQIECAAAECBAgQIECAAAECBAgQIECg5gIC55pXoOITIECAAAECBAgQIECAAAECBAgQIECAAAECBAgQIECgXQIC53bJ2y8BAgQIECBAgAABAgQIECBAgAABAgQIECBAgAABAgRqLiBwrnkFKj4BAgQIECBAgAABAgQIECBAgAABAgQIECBAgAABAgTaJSBwbpe8/RIgQIAAAQIECBAgQIAAAQIECBAgQIAAAQIECBAgQKDmAgLnmleg4hMgQIAAAQIECBAgQIAAAQIECBAgQIAAAQIECBAgQKBdAgLndsnbLwECBAgQIECAAAECBAgQIECAAAECBAgQIECAAAECBGouIHCueQUqPgECBAgQIECAAAECBAgQIECAAAECBAgQIECAAAECBNolIHBul7z9EiBAgAABAgQIECBAgAABAgQIECBAgAABAgQIECBAoOYCAueaV6DiEyBAgAABAgQIECBAgAABAgQIECBAgAABAgQIECBAoF0CAud2ydsvAQIECBAgQIAAAQIECBAgQIAAAQIECBAgQIAAAQIEai4gcK55BSo+AQIECBAgQIAAAQIECBAgQIAAAQIECBAgQIAAAQIE2iUgcG6XvP0SIECAAAECBAgQIECAAAECBAgQIECAAAECBAgQIECg5gIC55pXoOITIECAAAECBAgQIECAAAECBAgQIECAAAECBAgQIECgXQIC53bJ2y8BAgQIECBAgAABAgQIECBAgAABAgQIECBAgAABAgRqLiBwrnkFKj4BAgQIECBAgAABAgQIECBAgAABAgQIECBAgAABAgTaJSBwbpe8/RIgQIAAAQIECBAgQIAAAQIECBAgQIAAAQIECBAgQKDmAgLnmleg4hMgQIAAAQIECBAgQIAAAQIECBAgQIAAAQIECBAgQKBdAgLndsnbLwECBAgQIECAAAECBAgQIECAAAECBAgQIECAAAECBGouIHCueQUqPgECBAgQIECAAAECBAgQIECAAAECBAgQIECAAAECBNolIHBul7z9EiBAgAABAgQIECBAgAABAgQIECBAgAABAgQIECBAoOYCAueaV6DiEyBAgAABAgQIECBAgAABAgQIECBAgAABAgQIECBAoF0CAud2ydsvAQIECBAgQIAAAQIECBAgQIAAAQIECBAgQIAAAQIEai4gcK55BSo+AQIECBAgQIAAAQIECBAgQIAAAQIECBAgQIAAAQIE2iUgcG6XvP0SIECAAAECBAgQIECAAAECBAgQIECAAAECBAgQIECg5gIC55pXoOITIECAAAECBAgQIECAAAECBAgQIECAAAECBAgQIECgXQIC53bJ2y8BAgQIECBAgAABAgQIECBAgAABAgQIECBAgAABAgRqLiBwrnkFKj4BAgQIECBAgAABAgQIECBAgAABAgQIECBAgAABAgTaJSBwbpe8/RIgQIAAAQIECBAgQIAAAQIECBAgQIAAAQIECBAgQKDmAgLnmleg4hMgQIAAAQIECBAgQIAAAQIECBAgQIAAAQIECBAgQKBdAgLndsnbLwECBAgQIECAAAECBAgQIECAAAECBAgQIECAAAECBGouIHCueQUqPgECBAgQIECAAAECBAgQIECAAAECBAgQIECAAAECBNolIHBul7z9EiBAgAABAgQIECBAgAABAgQIECBAgAABAgQIECBAoOYCAueaV6DiEyBAgAABAgQIECBAgAABAgQIECBAgAABAgQIECBAoF0CAud2ydsvAQIECBAgQIAAAQIECBAgQIAAAQIECBAgQIAAAQIEai4gcK55BSo+AQIECBAgQIAAAQIECBAgQIAAAQIECBAgQIAAAQIE2iXw/wMDW5phDzJsqwAAAABJRU5ErkJggg==;" vertex="1" parent="1">
          <mxGeometry x="-590" y="150" width="1948" height="444" as="geometry" />
        </mxCell>
      </root>
    </mxGraphModel>
  </diagram>
</mxfile>
